<?xml version="1.0" encoding="UTF-8"?>
<svg id="Layer_1" xmlns="http://www.w3.org/2000/svg" version="1.1" viewBox="0 0 1080 1080">
  <!-- Generator: Adobe Illustrator 29.5.1, SVG Export Plug-In . SVG Version: 2.1.0 Build 141)  -->
  <defs>
    <style>
      .st0 {
        fill: #e4b300;
      }
    </style>
  </defs>
  <path class="st0" d="M522,536c.2.4.5.9.7,1.3,3.3,4.7,8,10.9,11.4,13.6.6.4,1.9,1.5,3.8,1.6.2,0,.4,0,.6,0,1.5,0,3.4-.5,5.3-2.6,1.9-2.1,6-8.3,9.2-13.2.2-.3.3-.6.5-.9,2.8.5,5.6,1.2,8.3,1.9-9.6,16-19.2,32.7-13.8,59-2.1,0-3.8,0-4.9,0-4.3,0-8.7,0-13.2-.1,3.1-26.3-3.8-38.5-12.4-53.7-.9-1.6-1.8-3.2-2.8-4.9,2.4-.8,4.8-1.4,7.4-2ZM538.4,545.9c0,0-.1,0-.2-.2-2.1-1.7-5.8-6.1-10-12.2-.7-1-.6-2.1.3-3,1.5-1.6,6-6,9.6-6s1.1.1,1.6.3c0,0,1.6.8,7.5,6.7.8.8.4,1.5.3,1.7-4.1,6.4-7.3,11-8.5,12.3-.2.2-.3.3-.4.3ZM590.2,589.2c-.9,2.5-1.8,5.1-2.7,7.5-2.6,0-5.2,0-7.8,0l-11.6-20.7c0,0,0-.2-.1-.2,10.6-.2,19.3,1,25.9,3.8-1.2,3.1-2.4,6.4-3.6,9.7ZM578.2,569.4c-3.7-.3-7.7-.4-12-.2-.6,0-1.8,0-2.9.8-1.8,1.1-2.7,3.3-2.4,5.7.2,1.5.9,2.7,1.4,3.6l9.8,17.5c-6.4,0-12.4,0-17.5,0-5.6-24.9,3.5-40.1,13.1-56.2l.4-.7c3.6,1.3,7,2.8,10.3,4.5-.7,6.8-.8,15.2-.3,25.1ZM508.4,540.4c1.1,2,2.2,4,3.3,5.8,8.4,14.9,14.5,25.7,11.5,50.4-1.9,0-3.8,0-5.8,0-3.2,0-6.5,0-9.7,0,2.5-7.2,4.9-14.4,6.6-22.3v-.3c.3-.8.7-2.2,0-3.8-.6-1.3-2-2.9-5.4-3.2-3.5-.2-6.9,0-10.3.6-.2-5.4-.9-12.4-2.1-20.7,3.6-2.5,7.6-4.7,12-6.6ZM484.1,580.4c6.8-4.7,15.1-7.2,23.4-6.8-1.8,8.1-4.3,15.5-7,23-1.6,0-3.2,0-4.8,0-4.3-5.1-8.2-10.5-11.6-16.2ZM490.4,551.6c1,7.2,1.5,13.1,1.5,17.6-4.1,1.4-8.1,3.3-11.6,5.8-.8.6-2.9,2-3.1,4.7,0,1.7.7,2.9,1.1,3.6,2.7,4.6,5.7,9,9,13.3-6.9,0-13.7,0-20.3,0,1.6-15.9,9.3-32.8,23.4-45.1ZM543.2,616c-1.3,1.3-3,1.9-4.8,1.9-1.8,0-3.4-.8-4.6-2.2l-11.1-12.4c6.9,0,13.7,0,20.3.1,1.5,0,4.1,0,7.5,0s3.3,0,5.2,0l-12.4,12.6ZM594.6,596.6c.6-1.7,1.3-3.5,1.9-5.2,1.2-3.4,2.4-6.8,3.7-9.9.4-.9,1.5-3.6-.2-6-.8-1.1-1.9-1.5-2.5-1.8-3.7-1.6-7.8-2.8-12.5-3.6-.5-8.6-.6-16.1,0-22.3,17.5,11.4,24.3,30.9,29.9,48.6-4.4,0-11.8,0-20.2.1ZM652.3,593.6c-1.5,1.6-3.5,2.4-5.7,2.5-2.7,0-5.3,0-6.7,0-2.9,0-12.6.1-18.2.2-5.9-18.4-13.2-41.3-33.7-54.3-9.9-6.3-22.2-10.8-34.6-12.9-.4-.8-1-1.7-1.7-2.4-6.8-6.7-8.6-7.6-9.3-7.9-3.8-1.9-10.2-2.1-18.9,7.1-1,1-1.6,2.2-2,3.4-38.9,8-58.7,39.4-61.3,67.4-6.9,0-17.8.2-26.1.3h-.1c-4.3,0-7.9-3.5-8.1-7.8-.4-10.4-.5-18.5-.6-23.5,0-2.5,0-5.1,1.2-7.1,1-1.6,3.4-3.1,5.7-2.8,1.9.3,4.7,2.9,5.8,4.9,4.5,8,10.5,7.7,12.9,7.2,5.1-1.1,9.3-6,9.7-11.5.4-5.3,0-12.4-.3-19.2-.4-6.9-.8-14.1-.3-19.2.4-4.6,1-8.4,3.6-11.1,2.4-2.5,6-1.6,8.5.5,1.9,1.5,3.1,4.3,4.5,7.2,1.2,2.6,2.4,5.3,4.3,7.6,2.4,3.1,7.3,4.5,12,3.5,4.7-1,8.2-4.3,9.3-8.6.9-3.8,1.6-8.8,2.2-15.2.2-2.1.4-5.8.6-10.1.3-6.7.8-15,1.2-18,1-6.8,4-11.4,7.8-11.6,3.1-.2,7.1,3.1,9,10.6,1.2,4.7,2.5,11.3,3.6,17.1.8,4.1,1.5,7.7,2,9.9,1.6,6.9,6.9,9.9,11.6,9.8,5,0,9.1-3.6,10.1-8.8.3-1.5.6-3.2.9-5,.6-3.8,1.3-8.2,2.4-11.9.9-3.1,2.8-4.7,5.4-4.7,3.1,0,7.1,2.8,8.4,8.7.6,2.4,1.2,7.9,1.9,13.1.7,5.5,1.3,10.8,1.9,13.5,1.7,7.3,6.6,10,10.6,10,0,0,0,0,0,0,5.6,0,10.4-4.4,12.1-11.1.5-2,1.1-4.1,1.6-6,.6-2,1-3.6,1.3-5,1-4.6,4.5-6.1,7.2-6,2.7,0,6,1.8,6.8,6.6,1.1,6.3,1.9,16.7,2.8,26.8.7,8.2,1.4,16,2.1,21.4.6,4.8,2.5,8.5,5.4,11.2,1.6,1.5,5.9,3.9,10.4,2.8,2.5-.6,5.8-2.6,7.8-8.4,1.1-3.3,2.7-5.5,4.5-6.3,1.6-.8,3.3-.3,4.2,0,2.2.9,4,2.7,4.9,5.1.9,2.4,1,5.1,1.1,7.9.2,6,.4,16.4.6,24.5,0,2.2-.8,4.2-2.2,5.8Z"/>
</svg>