<?xml version="1.0" standalone="no"?>
<!DOCTYPE svg PUBLIC "-//W3C//DTD SVG 20010904//EN"
 "http://www.w3.org/TR/2001/REC-SVG-20010904/DTD/svg10.dtd">
<svg version="1.0" xmlns="http://www.w3.org/2000/svg"
 width="1040.000000pt" height="1040.000000pt" viewBox="0 0 1040.000000 1040.000000"
 preserveAspectRatio="xMidYMid meet">
<metadata>
Created by potrace 1.14, written by Peter Selinger 2001-2017
</metadata>
<g transform="translate(0.000000,1040.000000) scale(0.100000,-0.100000)"
fill="#000000" stroke="none">
<path d="M4847 9870 c-98 -6 -125 -17 -131 -51 -9 -54 -15 -59 -93 -73 -25 -5
-166 -17 -241 -21 -29 -1 -55 -5 -59 -8 -3 -4 -14 -2 -24 4 -11 5 -19 6 -19 2
0 -10 -61 -12 -445 -14 -459 -3 -465 -2 -540 73 -34 35 -86 60 -130 63 -200
15 -843 21 -1065 10 -85 -4 -186 -9 -225 -10 -266 -13 -390 -19 -458 -19 -42
0 -77 -3 -77 -6 0 -3 -42 -5 -93 -6 -50 0 -150 -4 -222 -8 -71 -4 -172 -9
-222 -11 -109 -6 -166 -25 -339 -115 -131 -68 -176 -93 -321 -178 -151 -89
-167 -134 -108 -302 14 -41 28 -83 30 -94 2 -10 11 -29 20 -42 8 -13 15 -27
15 -32 0 -5 10 -31 22 -58 12 -27 23 -51 23 -54 5 -24 293 -609 367 -745 31
-55 72 -104 91 -105 4 0 25 -11 46 -25 44 -29 77 -85 120 -202 16 -44 54 -130
85 -191 30 -60 53 -112 50 -114 -2 -3 2 -11 11 -18 8 -7 15 -19 15 -27 0 -7 6
-24 14 -36 11 -18 96 -208 161 -362 7 -16 22 -50 33 -75 11 -25 36 -85 56
-135 20 -49 41 -99 46 -110 11 -24 107 -257 124 -300 6 -16 17 -39 23 -50 6
-11 12 -24 13 -30 2 -5 6 -19 11 -30 4 -11 36 -87 69 -170 34 -82 81 -197 106
-255 24 -58 44 -111 44 -117 0 -7 4 -13 8 -13 4 0 14 -16 21 -36 7 -20 39 -91
71 -158 64 -136 65 -137 190 -151 113 -12 141 -27 178 -93 9 -16 58 -96 107
-176 50 -81 95 -155 100 -165 6 -10 17 -26 24 -35 7 -9 10 -16 6 -16 -5 0 -1
-8 7 -17 13 -15 177 -282 238 -388 82 -141 266 -441 272 -443 4 -2 8 -8 8 -13
0 -6 35 -67 78 -137 98 -161 100 -164 108 -182 4 -8 17 -29 30 -46 13 -17 20
-34 17 -38 -4 -3 -2 -6 4 -6 5 0 20 -19 32 -43 12 -23 38 -67 57 -97 18 -30
41 -70 50 -87 9 -18 20 -33 25 -33 5 0 9 -4 9 -9 0 -6 34 -67 77 -137 42 -70
77 -139 78 -153 1 -14 -7 -49 -17 -78 -14 -40 -15 -59 -8 -80 17 -45 54 -117
65 -125 5 -4 7 -8 2 -8 -4 0 3 -17 16 -37 13 -21 27 -45 30 -53 4 -8 16 -28
27 -45 10 -16 25 -41 33 -55 25 -47 42 -75 47 -80 5 -5 22 -33 47 -80 8 -14
22 -37 31 -52 9 -14 31 -50 49 -80 17 -29 72 -116 121 -193 l89 -140 92 -46
c93 -46 113 -66 186 -192 9 -15 96 -152 240 -377 23 -36 70 -110 105 -165 115
-182 373 -570 384 -577 6 -4 8 -8 3 -8 -4 0 14 -22 40 -49 50 -51 80 -68 142
-77 20 -2 50 -8 66 -11 50 -10 108 -11 146 -2 38 9 52 26 244 309 43 63 83
118 89 122 6 4 7 8 3 8 -4 0 10 24 30 53 21 28 97 140 168 247 72 107 135 200
140 206 6 6 19 27 30 47 11 20 23 37 27 37 5 0 8 5 8 10 0 6 5 16 10 23 22 25
150 220 150 227 0 5 3 10 8 12 4 2 54 75 112 163 58 88 108 162 113 163 4 2 7
8 7 14 0 5 8 20 18 33 9 12 22 31 29 41 7 11 28 43 48 73 19 29 35 57 35 62 0
5 5 9 10 9 6 0 10 4 10 9 0 17 152 238 383 555 88 120 165 233 172 250 13 31
13 48 1 182 -7 70 -6 71 43 167 28 53 68 128 91 167 22 40 40 76 40 81 0 5 5
9 10 9 6 0 10 4 10 10 0 5 23 48 50 96 27 48 50 88 50 90 0 1 32 55 70 120 39
64 70 118 70 119 0 2 39 70 87 152 47 81 98 168 112 193 13 25 27 47 30 50 6
5 19 28 59 100 11 19 75 127 143 240 67 113 127 214 133 225 15 26 74 125 86
145 32 50 147 242 168 280 14 25 40 69 59 98 18 29 33 57 33 62 0 6 5 10 10
10 6 0 10 5 10 11 0 6 14 31 30 56 17 24 30 46 30 48 0 2 44 75 97 162 53 87
101 167 107 178 38 69 71 104 131 139 63 37 93 68 115 117 6 13 21 42 33 64
61 107 145 282 166 347 11 33 9 42 -17 101 l-29 64 26 54 c14 30 30 59 34 64
18 23 97 158 97 165 0 5 6 15 13 22 11 13 18 24 50 81 6 12 14 24 17 27 3 3
16 25 29 50 14 25 29 48 35 52 6 4 8 8 4 8 -4 0 9 24 28 52 19 29 34 58 34 65
0 7 5 13 10 13 6 0 10 7 10 15 0 8 4 15 8 15 5 0 14 16 22 35 8 19 17 35 22
35 4 0 8 4 8 10 0 5 38 78 85 161 47 84 85 154 85 156 0 2 16 26 35 53 19 27
35 52 35 56 0 3 12 24 28 47 15 23 32 51 39 62 20 34 165 268 188 305 40 62
95 161 95 170 0 5 6 15 13 22 19 20 83 166 102 233 26 90 14 153 -48 260 -26
44 -50 55 -267 131 -58 20 -114 40 -125 44 -112 44 -701 245 -748 254 -7 2
-19 6 -27 9 -51 21 -184 46 -277 53 -82 6 -99 0 -161 -60 l-43 -41 -397 1
c-218 1 -489 5 -602 9 -113 4 -272 9 -355 11 -82 2 -150 4 -150 5 0 0 -74 2
-165 4 -528 11 -950 22 -1105 31 -82 4 -96 4 -117 3 -13 0 -209 7 -398 16 -58
2 -179 7 -270 10 -91 4 -169 7 -175 8 -5 2 -54 0 -108 -3z m-1954 -361 c20 -2
37 -7 37 -13 0 -5 3 -6 7 -3 6 6 53 -54 53 -68 0 -3 17 -32 38 -63 52 -77 102
-167 102 -182 0 -15 -24 -38 -100 -97 -30 -24 -60 -47 -67 -53 -7 -5 -17 -10
-23 -10 -5 0 -10 -4 -10 -9 0 -5 -14 -14 -30 -21 -33 -14 -34 -13 -109 60 -15
14 -55 50 -90 80 -36 30 -72 62 -81 70 -9 8 -47 42 -85 75 -119 102 -136 119
-162 159 -14 21 -21 42 -16 47 10 10 76 16 263 25 74 3 136 7 137 8 3 2 82 -1
136 -5z m2447 -3 c117 -10 132 -13 141 -27 5 -8 6 -22 3 -32 -3 -10 -7 -30 -9
-45 -4 -26 -10 -64 -19 -108 -2 -12 -7 -37 -10 -55 -3 -19 -9 -47 -14 -64 l-8
-30 -216 -3 -215 -4 -20 49 c-12 26 -24 71 -27 98 -3 28 -7 61 -9 75 -2 14 -7
53 -11 87 l-8 61 29 4 c41 5 305 1 393 -6z m1620 -51 c19 -2 85 -7 145 -10 61
-4 128 -8 150 -10 22 -2 55 -4 72 -4 l33 -1 -31 -42 c-16 -24 -46 -68 -66 -98
-19 -30 -38 -57 -42 -60 -11 -9 -61 -86 -61 -93 0 -5 -4 -13 -10 -20 -5 -7
-37 -50 -71 -96 -34 -47 -109 -141 -166 -209 -58 -68 -127 -155 -155 -193 -53
-73 -80 -86 -128 -62 -90 44 -200 93 -209 93 -6 0 -11 5 -11 10 0 6 -3 9 -7 8
-14 -5 -73 24 -73 36 0 6 9 43 21 81 11 39 31 106 44 150 54 188 180 464 233
513 25 24 28 24 161 18 75 -4 152 -9 171 -11z m-5570 -28 c32 -15 61 -36 130
-97 74 -64 197 -167 358 -297 72 -59 132 -115 132 -124 0 -9 -7 -22 -15 -29
-8 -7 -15 -19 -15 -26 0 -8 -4 -14 -10 -14 -5 0 -10 -6 -10 -14 0 -8 -3 -16
-8 -18 -4 -1 -25 -28 -47 -58 -22 -30 -48 -64 -57 -74 -10 -11 -18 -23 -18
-28 0 -4 -9 -12 -21 -18 -17 -9 -33 -5 -91 25 -39 21 -100 55 -135 76 -35 22
-68 39 -73 39 -6 0 -10 5 -10 10 0 6 -5 10 -11 10 -5 0 -57 29 -114 65 -99 62
-211 118 -260 130 -5 2 -57 21 -115 43 -109 41 -135 51 -148 53 -4 0 -16 6
-27 12 -11 6 -24 12 -30 13 -5 1 -48 17 -95 35 -47 18 -88 32 -92 31 -5 -1 -8
2 -8 8 0 6 -6 9 -12 8 -15 -3 -23 80 -10 100 5 7 22 15 38 18 43 9 59 12 59
14 0 1 7 3 15 5 8 1 61 15 116 29 56 14 110 27 120 29 11 1 24 5 29 8 6 4 18
5 28 4 9 -2 17 1 17 6 0 6 3 8 8 6 6 -4 67 3 152 18 14 3 57 7 95 11 39 3 72
8 73 9 5 4 28 -3 62 -18z m7123 -10 c15 -2 37 -4 50 -5 60 -6 55 -18 -44 -114
-174 -169 -256 -243 -363 -330 -11 -10 -26 -22 -33 -28 -7 -5 -17 -10 -23 -10
-5 0 -10 -4 -10 -9 0 -5 -16 -19 -36 -30 -30 -18 -39 -19 -53 -9 -35 27 -95
96 -131 152 l-39 60 37 45 c20 25 39 48 42 51 3 3 34 39 70 80 109 126 159
164 189 146 5 -4 12 -3 14 1 5 7 268 7 330 0z m-4435 -77 c14 -30 26 -58 26
-62 1 -3 4 -10 9 -14 12 -13 8 -24 -10 -24 -10 0 -37 -7 -60 -15 -22 -8 -52
-16 -65 -19 -12 -3 -61 -16 -108 -31 -47 -14 -94 -28 -105 -30 -11 -3 -48 -13
-82 -24 l-61 -19 -27 33 c-48 61 -85 120 -85 137 0 9 -4 20 -10 23 -5 3 -10
17 -10 31 0 17 6 25 20 26 62 5 78 7 215 24 22 2 65 7 95 10 30 3 56 7 57 8 1
1 41 1 89 1 l87 0 25 -55z m2148 47 c9 -8 -61 -153 -148 -308 -46 -83 -68
-106 -89 -93 -5 3 -26 7 -47 9 -35 4 -68 9 -119 19 -11 3 -42 8 -67 11 -25 4
-44 10 -42 14 2 3 7 24 10 46 3 22 11 64 17 92 6 29 12 65 14 80 2 16 4 28 5
28 2 0 5 16 14 59 7 38 14 44 56 48 74 7 389 3 396 -5z m3102 -42 c23 -3 77
-15 119 -26 43 -12 83 -22 88 -23 6 -1 37 -10 70 -20 33 -10 67 -20 75 -22 85
-21 265 -83 268 -93 8 -24 -64 -181 -115 -248 -22 -31 -56 -46 -132 -60 -14
-2 -28 -6 -33 -9 -4 -3 -18 -7 -30 -10 -42 -8 -63 -13 -115 -28 -29 -8 -53
-12 -53 -10 0 3 -6 2 -12 -3 -7 -4 -17 -8 -23 -10 -5 -1 -64 -16 -130 -32 -66
-17 -128 -33 -138 -36 -10 -2 -25 -1 -33 2 -14 5 -100 132 -178 261 -45 75
-48 68 79 177 26 22 54 47 63 56 10 8 51 42 92 75 41 32 77 62 78 67 2 4 7 5
11 3 3 -2 25 -7 49 -11z m-4667 -112 c2 -20 10 -56 33 -141 13 -50 22 -92 20
-92 -3 0 -2 -6 3 -12 4 -7 9 -20 11 -28 6 -31 10 -56 16 -95 3 -22 8 -51 11
-65 3 -14 7 -41 10 -60 2 -19 13 -89 25 -155 28 -167 29 -161 -25 -168 -25 -4
-56 -9 -70 -13 -26 -6 -37 10 -49 69 -3 12 -9 37 -15 55 -5 17 -7 32 -5 32 3
0 2 6 -3 13 -4 6 -8 17 -10 22 -6 28 -14 62 -48 195 -20 80 -38 153 -40 163
-2 9 -6 21 -9 26 -3 5 -8 25 -11 45 -4 20 -22 69 -41 110 -50 110 -54 106 81
106 63 0 115 -3 116 -7z m-434 -256 c7 -21 15 -48 17 -60 3 -12 11 -44 20 -72
8 -27 24 -84 35 -125 11 -41 34 -122 51 -180 17 -58 33 -114 35 -124 11 -51
42 -129 82 -208 24 -49 40 -88 37 -88 -4 0 -1 -7 6 -15 7 -8 10 -15 7 -15 -4
0 0 -18 8 -40 8 -22 12 -40 10 -40 -2 0 3 -17 12 -37 17 -41 57 -195 67 -255
l6 -36 -82 -32 c-45 -17 -87 -29 -94 -26 -6 2 -15 22 -19 43 -10 44 -12 52
-15 56 -1 1 -3 9 -5 17 -18 73 -38 127 -70 195 -21 44 -38 83 -37 88 1 4 -3 7
-8 7 -5 0 -9 3 -8 8 1 4 -7 23 -17 42 -11 19 -31 56 -45 83 -43 82 -366 577
-422 648 -16 20 -26 42 -23 50 4 10 213 100 245 105 3 0 25 6 50 13 25 7 56
15 70 18 14 2 29 9 35 14 18 18 40 4 52 -34z m-968 -14 c9 -10 28 -34 41 -53
13 -19 29 -38 35 -42 6 -5 6 -8 0 -8 -6 0 -6 -3 1 -8 5 -4 37 -45 69 -92 75
-109 108 -154 118 -158 4 -2 7 -8 7 -12 0 -5 49 -73 110 -152 104 -136 266
-345 294 -379 8 -9 15 -20 17 -25 5 -11 82 -127 89 -134 3 -3 10 -14 16 -25
47 -86 81 -145 100 -177 13 -20 39 -68 59 -107 28 -55 34 -74 26 -89 -14 -26
-48 -34 -65 -16 -8 8 -18 14 -22 14 -14 0 -401 388 -614 616 -109 117 -152
176 -211 289 -34 66 -76 140 -94 165 -32 46 -138 163 -187 208 -36 32 -35 44
3 73 17 13 36 29 42 34 41 35 121 88 145 94 2 1 11 -7 21 -16z m2143 -12 c10
0 15 -7 13 -13 -2 -7 -7 -83 -10 -168 -10 -288 -16 -365 -36 -438 -28 -100
-27 -96 -34 -245 -4 -73 -8 -170 -10 -216 -4 -91 -10 -100 -60 -102 -16 0 -45
-2 -62 -3 -42 -3 -55 5 -58 40 -2 16 -6 56 -10 89 -4 33 -9 85 -10 115 -4 70
-13 158 -20 190 -12 56 -19 107 -20 138 0 17 -3 32 -6 32 -3 0 -6 17 -6 38 -1
20 -4 50 -7 66 -5 29 -12 74 -22 156 -3 25 -7 61 -10 80 -8 58 -11 218 -5 228
3 5 12 11 20 13 12 4 303 4 353 0z m2372 -141 c99 -103 99 -87 2 -179 -32 -31
-81 -85 -109 -121 -61 -78 -158 -174 -288 -281 -24 -21 -56 -48 -70 -60 -15
-13 -44 -39 -65 -58 -108 -95 -456 -415 -513 -472 -20 -20 -67 -71 -106 -114
-92 -103 -203 -215 -212 -215 -14 0 -101 86 -105 103 -3 14 57 85 187 223 81
85 210 228 275 303 70 82 97 112 217 237 95 99 146 156 188 209 22 27 49 61
60 74 42 52 430 440 441 441 6 0 50 -41 98 -90z m-2014 -4 c138 -25 186 -42
183 -66 -1 -8 -13 -53 -28 -100 -14 -47 -27 -89 -28 -95 -2 -5 -9 -21 -16 -34
-12 -21 -18 -23 -64 -18 -149 16 -177 21 -177 31 -1 31 44 273 53 283 5 7 19
11 31 8 11 -3 32 -7 46 -9z m2933 -39 c12 -12 31 -35 42 -51 11 -16 28 -37 38
-48 9 -10 17 -20 17 -23 0 -3 18 -30 41 -60 29 -39 39 -60 34 -75 -3 -11 -12
-20 -18 -20 -7 0 -24 -11 -39 -25 -15 -14 -32 -25 -38 -25 -5 0 -10 -4 -10
-10 0 -5 -6 -10 -14 -10 -8 0 -16 -4 -18 -9 -3 -7 -287 -209 -356 -253 -15 -9
-31 -21 -37 -25 -5 -5 -39 -27 -75 -51 -36 -23 -72 -48 -80 -54 -21 -19 -34
-26 -189 -105 -160 -82 -199 -90 -218 -45 -7 15 -28 51 -48 80 -19 30 -35 57
-35 62 0 4 -7 13 -15 20 -8 7 -15 16 -15 21 0 12 73 79 86 79 3 0 20 12 38 26
17 14 69 54 116 90 47 35 90 68 97 74 7 5 17 10 23 10 5 0 10 3 10 8 0 4 24
23 53 42 28 19 57 40 63 45 27 23 52 42 94 69 24 16 49 33 54 37 57 46 158
119 165 119 5 0 11 4 13 8 6 16 163 121 181 122 10 0 28 -10 40 -23z m-6427
-69 c82 -59 96 -71 205 -172 115 -107 207 -189 367 -325 29 -24 52 -50 52 -57
0 -7 -18 -41 -40 -75 -21 -33 -42 -70 -45 -80 -4 -10 -15 -19 -26 -19 -18 0
-27 5 -62 36 -7 6 -17 13 -22 15 -6 2 -32 20 -58 39 -147 108 -223 165 -234
174 -65 58 -213 165 -291 212 -45 27 -82 52 -82 56 0 3 7 14 16 22 8 9 13 16
9 16 -5 0 44 70 75 107 5 7 10 15 10 18 0 10 52 75 60 75 4 0 33 -19 66 -42z
m-1530 6 c114 -43 326 -142 332 -156 2 -4 10 -4 18 -1 8 3 14 1 14 -3 0 -5 15
-15 33 -23 17 -8 59 -26 92 -41 56 -26 93 -41 105 -45 33 -9 113 -51 119 -63
6 -11 3 -32 -9 -62 -10 -25 -19 -49 -20 -55 -1 -5 -7 -21 -12 -35 -5 -14 -20
-56 -34 -95 -14 -38 -29 -79 -34 -90 -5 -11 -12 -30 -15 -43 -6 -21 -8 -21
-68 25 -34 26 -76 58 -93 72 -16 14 -45 37 -64 51 -18 14 -38 30 -44 35 -6 6
-56 47 -111 92 -108 87 -125 105 -157 161 -39 69 -98 192 -98 205 0 7 -4 17
-9 23 -10 10 -25 74 -18 74 3 0 35 -12 73 -26z m5649 -366 c66 -22 126 -45
133 -52 10 -10 1 -30 -45 -102 -31 -49 -60 -91 -63 -94 -5 -4 -53 -101 -97
-195 -7 -16 -36 -70 -63 -120 -28 -49 -53 -98 -56 -107 -4 -10 -10 -18 -15
-18 -5 0 -9 -6 -9 -12 0 -7 -8 -23 -18 -35 l-17 -22 -85 37 c-47 20 -87 37
-89 39 -4 3 28 122 37 138 3 5 7 16 7 25 3 28 147 456 186 548 11 29 24 27
194 -30z m3242 35 c-2 -10 -6 -25 -8 -33 -2 -8 -11 -20 -19 -27 -8 -7 -11 -13
-6 -13 5 0 2 -8 -6 -17 -8 -10 -39 -61 -69 -113 -30 -52 -59 -104 -66 -115 -7
-11 -15 -26 -19 -34 -4 -8 -39 -69 -77 -135 -39 -67 -79 -137 -90 -156 -73
-132 -79 -139 -158 -180 -42 -22 -79 -37 -83 -33 -3 3 -6 2 -6 -3 0 -6 -17
-16 -37 -23 -21 -8 -49 -18 -63 -24 -14 -6 -27 -11 -30 -12 -3 -1 -12 -5 -20
-8 -65 -27 -153 -56 -160 -52 -6 4 -19 45 -36 118 -2 9 -6 25 -9 35 -11 41
-26 98 -30 112 -2 8 -4 15 -5 15 -1 0 -3 9 -5 20 -2 11 -8 38 -14 60 -13 51
-8 68 26 82 80 34 323 178 331 195 2 5 8 8 13 8 12 0 91 51 101 65 4 5 8 7 8
3 0 -5 8 -1 18 8 53 47 315 204 377 225 39 13 73 29 77 34 4 6 8 6 8 2 0 -4 8
-3 18 2 27 16 45 13 39 -6z m-3948 -68 c77 -14 109 -19 126 -19 24 -1 25 -12
8 -91 -8 -33 -16 -71 -19 -85 -3 -14 -12 -52 -21 -85 -8 -33 -17 -69 -19 -80
-10 -51 -43 -186 -48 -201 -3 -8 -24 -8 -78 1 -40 7 -74 13 -75 14 -2 1 -10 1
-19 1 -15 0 -15 18 1 140 5 36 16 136 21 180 1 14 3 25 4 25 1 0 4 18 6 40 8
87 11 111 18 142 8 35 7 35 95 18z m-3909 -88 c30 -16 64 -35 75 -42 11 -7 52
-29 90 -50 39 -21 133 -82 210 -135 77 -53 219 -150 315 -214 96 -64 184 -122
195 -130 11 -8 70 -47 130 -87 122 -80 223 -154 242 -177 7 -9 11 -26 9 -39
-4 -22 -43 -102 -82 -170 -32 -56 -63 -46 -294 93 -136 81 -527 284 -550 284
-5 0 -10 3 -10 8 0 4 -15 13 -32 21 -18 8 -45 23 -60 33 -16 11 -28 16 -28 12
0 -3 -6 -2 -12 4 -13 10 -49 30 -133 75 -22 12 -42 24 -45 27 -3 3 -21 13 -40
24 -171 91 -201 113 -195 139 8 37 74 251 84 272 5 11 16 37 25 57 19 42 18
42 106 -5z m3071 26 c0 -5 2 -24 4 -43 1 -19 3 -35 4 -35 2 0 4 -16 6 -35 2
-19 6 -48 9 -65 3 -16 8 -47 11 -69 4 -21 8 -46 9 -55 18 -100 29 -182 24
-186 -10 -10 -93 -10 -93 0 -1 6 -4 26 -8 45 -4 19 -9 46 -12 60 -3 14 -8 36
-11 50 -3 14 -9 43 -14 65 -4 22 -10 49 -13 60 -11 43 -31 151 -32 165 0 20
113 62 116 43z m-1751 -249 c0 8 36 -15 107 -66 58 -43 58 -37 10 -138 -46
-97 -41 -95 -111 -57 -151 82 -145 72 -89 177 25 47 47 89 50 93 3 4 11 3 19
-4 8 -6 14 -9 14 -5z m4447 -174 c20 -36 42 -76 49 -90 8 -14 14 -30 14 -36 0
-7 -35 -34 -77 -60 -65 -41 -516 -338 -548 -362 -5 -4 -35 -23 -65 -42 -30
-19 -57 -38 -60 -42 -9 -12 -131 -90 -180 -115 l-45 -23 -28 33 c-16 17 -35
44 -43 59 -13 26 -12 28 30 65 24 22 86 68 138 103 51 35 98 68 103 72 6 5 81
60 168 123 154 112 228 171 431 344 26 23 55 41 63 39 8 -2 31 -32 50 -68z
m-4063 -87 c28 -21 53 -40 56 -43 3 -3 26 -21 53 -40 26 -18 47 -36 47 -39 0
-10 93 -106 140 -143 25 -20 57 -47 71 -60 15 -13 41 -34 59 -48 42 -32 60
-49 60 -59 0 -4 -21 -30 -46 -59 l-46 -52 -42 32 c-22 18 -43 35 -46 38 -3 3
-27 23 -55 45 -27 22 -55 44 -61 50 -6 5 -22 17 -34 25 -12 8 -28 21 -36 28
-7 6 -16 12 -19 12 -6 0 -28 16 -82 60 -7 6 -16 10 -22 10 -5 0 -11 3 -13 8
-1 4 -29 24 -61 45 -32 21 -60 43 -63 50 -6 15 67 177 80 177 4 0 31 -17 60
-37z m4903 -75 c11 -16 34 -103 49 -183 4 -27 9 -46 34 -127 7 -23 4 -31 -16
-47 -13 -10 -44 -25 -69 -32 -25 -7 -45 -16 -45 -20 0 -3 -6 -6 -12 -6 -11 -1
-352 -126 -571 -210 -81 -31 -83 -30 -116 67 -12 36 -25 72 -28 80 -4 8 -5 18
-5 23 1 4 -2 7 -6 7 -4 0 -9 16 -10 35 -2 23 2 35 10 35 14 0 251 141 256 153
2 4 9 7 16 7 6 0 23 8 36 17 14 10 31 18 39 20 8 1 17 6 20 10 3 5 20 14 36
20 132 50 222 88 236 100 9 7 19 10 22 7 4 -4 13 -1 22 6 17 14 77 49 86 49 4
1 11 -5 16 -11z m-3046 -142 c21 -6 41 -14 44 -18 14 -13 -7 -65 -43 -108
-103 -124 -119 -128 -194 -50 -61 64 -100 123 -93 142 15 39 197 60 286 34z
m-515 -80 c18 -4 36 -17 41 -29 6 -12 38 -52 72 -89 33 -36 61 -70 61 -76 0
-5 30 -42 67 -82 37 -40 68 -80 70 -90 2 -16 -51 -80 -67 -80 -4 0 -17 -9 -30
-20 -32 -28 -43 -25 -67 18 -11 20 -35 64 -53 97 -18 33 -42 74 -52 90 -10 17
-21 37 -25 45 -4 8 -24 39 -46 68 -21 29 -45 69 -54 89 -14 35 -14 37 8 54 12
9 27 16 33 15 6 -1 25 -6 42 -10z m887 3 c12 -7 24 -13 26 -15 2 -2 -19 -34
-47 -71 -48 -66 -142 -209 -142 -217 0 -13 -83 -146 -91 -146 -5 0 -9 -6 -9
-14 0 -34 -25 -35 -75 -3 -28 17 -60 41 -73 52 l-23 21 30 41 c16 23 45 56 63
75 18 19 51 55 73 82 22 27 52 62 68 78 15 17 31 36 35 42 4 6 26 28 50 49 44
39 76 46 115 26z m-4306 -90 c68 -31 114 -51 123 -54 3 -1 25 -11 50 -22 25
-11 83 -38 130 -58 47 -21 137 -62 200 -93 63 -30 120 -56 125 -58 6 -1 54
-23 108 -49 54 -26 153 -65 220 -88 67 -23 130 -47 141 -53 16 -10 18 -24 18
-135 0 -68 -1 -132 -1 -142 -1 -16 -9 -17 -73 -12 -40 3 -80 8 -88 10 -8 2
-28 7 -45 10 -16 2 -39 7 -50 9 -11 2 -40 7 -65 11 -25 4 -54 9 -65 12 -11 2
-33 7 -50 9 -16 3 -84 16 -150 29 -66 13 -142 26 -170 30 -27 3 -59 12 -70 20
-37 26 -55 42 -55 49 0 3 -11 23 -23 44 -13 20 -32 51 -43 67 -10 17 -19 32
-19 35 0 3 -4 11 -9 18 -34 54 -225 442 -217 442 5 0 40 -14 78 -31z m4604
-57 l56 -48 -3 -140 c-11 -451 -15 -577 -22 -605 -2 -8 -53 -23 -67 -20 -5 2
-92 3 -193 3 -210 0 -220 -3 -196 -60 8 -20 41 -68 73 -107 31 -38 77 -97 102
-130 24 -33 50 -66 57 -73 7 -8 25 -30 40 -50 15 -19 44 -53 64 -75 113 -116
136 -160 133 -247 l-3 -65 -123 -1 c-120 0 -124 0 -147 25 -28 30 -87 128 -97
162 -4 13 -18 47 -30 74 -13 28 -35 79 -50 115 -14 36 -32 79 -40 95 -40 87
-78 246 -77 320 1 94 47 263 105 385 24 51 22 48 32 78 4 12 10 22 14 22 4 0
15 17 24 38 9 20 41 70 72 110 30 40 55 75 55 78 0 3 69 80 127 141 12 13 26
23 30 23 4 0 33 -22 64 -48z m-1473 -24 c51 -53 156 -193 175 -235 6 -13 14
-23 19 -23 5 0 6 -4 3 -10 -3 -5 -1 -10 4 -10 6 0 11 -4 11 -10 0 -5 25 -53
55 -107 91 -164 115 -246 126 -428 2 -30 -10 -126 -21 -165 -10 -39 -63 -176
-90 -235 -5 -11 -26 -60 -46 -110 -20 -49 -42 -103 -49 -120 -7 -16 -21 -51
-30 -77 -9 -25 -25 -48 -34 -51 -15 -4 -69 -3 -214 4 -32 1 -60 6 -63 11 -3 5
-8 49 -10 99 l-5 90 48 48 c79 79 163 174 213 241 36 48 78 103 88 115 4 6 28
37 52 70 25 33 49 63 54 66 5 4 6 14 3 23 -8 21 -58 24 -212 12 -212 -17 -235
-16 -255 4 -14 14 -20 35 -21 68 -1 26 -3 76 -6 112 -2 36 -6 189 -9 341 l-6
276 33 13 c19 8 48 19 64 26 52 22 69 16 123 -38z m-1231 -24 c82 -45 114 -65
256 -157 75 -50 137 -93 137 -97 0 -7 -61 -89 -102 -138 -24 -28 -29 -30 -58
-22 -44 13 -192 82 -208 97 -7 7 -21 13 -31 13 -10 0 -21 3 -25 7 -3 4 -12 8
-19 9 -19 3 -80 32 -99 47 -27 22 -28 67 -1 120 13 26 32 56 42 66 10 10 24
32 32 49 8 18 17 32 21 32 4 0 29 -12 55 -26z m4108 -118 c2 -11 12 -56 21
-99 18 -77 14 -99 -16 -103 -6 -1 -11 -2 -12 -4 -2 -1 -10 -3 -18 -5 -8 -2
-107 -36 -220 -75 -113 -39 -214 -73 -225 -76 -64 -18 -62 -18 -101 41 -51 76
-52 75 91 141 104 48 215 100 345 162 57 27 110 47 117 45 7 -3 15 -15 18 -27z
m-3291 -83 c-2 -16 -4 -140 -4 -276 -1 -137 -5 -259 -10 -272 -5 -13 -18 -29
-29 -34 -10 -6 -86 -13 -168 -16 -81 -3 -157 -7 -168 -9 -11 -2 -28 1 -37 6
-12 6 -18 5 -18 -2 0 -8 -6 -8 -20 0 -11 6 -20 7 -20 3 0 -4 -5 -2 -11 4 -11
11 1 43 25 69 6 6 18 22 26 34 33 49 104 145 110 150 3 3 21 26 40 53 18 26
37 47 42 47 4 0 8 7 8 15 0 8 5 15 10 15 6 0 10 4 10 10 0 5 10 20 23 33 12
13 57 63 101 110 43 48 82 87 86 87 4 0 6 -12 4 -27z m2237 -98 c105 -109 159
-175 231 -281 51 -74 97 -178 85 -190 -2 -3 -86 -6 -185 -6 -200 -2 -205 0
-222 61 -15 56 -21 523 -7 514 7 -4 51 -48 98 -98z m2519 -25 c-8 -5 -12 -10
-8 -10 8 0 -11 -47 -56 -143 -28 -58 -27 -57 -126 -73 -14 -2 -41 -7 -60 -10
-110 -21 -120 -13 -127 94 -5 75 -2 87 20 81 1 0 15 5 31 11 16 6 48 13 70 16
23 3 79 13 126 22 107 22 151 26 130 12z m-3613 -45 c23 -14 43 -29 43 -33 -1
-24 -91 -88 -104 -74 -4 4 -11 7 -15 7 -10 0 -71 58 -71 67 0 11 72 58 89 58
8 0 34 -11 58 -25z m-2337 -80 c74 -14 145 -28 157 -31 44 -9 318 -123 321
-133 2 -6 -7 -41 -20 -78 -12 -38 -23 -73 -23 -80 0 -6 -3 -14 -7 -18 -5 -5
-167 14 -251 30 -11 3 -39 7 -62 10 -22 3 -51 8 -65 10 -14 3 -36 7 -50 10
-14 3 -36 7 -50 10 -32 7 -68 14 -104 21 -38 6 -43 10 -49 34 -3 11 -1 18 4
14 5 -3 5 5 0 19 -5 13 -6 28 -3 34 4 6 7 50 6 98 l-1 87 31 -5 c17 -3 92 -18
166 -32z m5349 -51 c1 -26 2 -50 3 -53 3 -32 -5 -50 -29 -59 -41 -16 -105 -31
-156 -37 -25 -3 -55 -8 -67 -10 -12 -2 -48 -7 -79 -11 -31 -3 -65 -8 -76 -10
-54 -10 -106 -18 -185 -28 -14 -2 -38 -6 -55 -9 -16 -4 -51 -9 -77 -11 -26 -3
-76 -10 -110 -15 -94 -15 -128 -19 -183 -26 -27 -3 -61 -8 -75 -10 -14 -2 -43
-7 -65 -10 -23 -3 -52 -7 -65 -10 -82 -16 -100 -16 -101 0 -2 23 -4 29 -12 42
-9 14 40 43 71 43 10 0 22 3 25 6 4 4 21 8 39 10 18 2 42 6 53 9 231 59 347
87 379 90 21 3 64 9 95 14 31 6 70 13 86 16 17 2 41 7 55 10 14 3 39 7 55 10
108 19 281 60 405 98 25 8 50 10 56 6 5 -5 11 -29 13 -55z m-3096 -125 c28 0
69 3 91 6 29 5 36 4 30 -6 -14 -23 -12 -237 3 -307 8 -37 16 -76 17 -87 3 -22
25 -100 62 -220 13 -44 25 -84 26 -90 0 -5 14 -45 29 -87 15 -43 25 -78 22
-78 -3 0 0 -7 7 -15 7 -8 9 -15 5 -15 -4 0 -2 -7 5 -15 7 -8 9 -15 5 -15 -4 0
-3 -6 2 -12 19 -24 23 -68 12 -112 -9 -35 -17 -47 -38 -54 -28 -10 -403 -9
-431 1 -8 3 -24 8 -36 12 -13 4 -27 24 -37 53 -16 45 -16 51 9 172 13 69 38
168 55 220 16 52 31 105 34 118 3 12 7 32 10 45 2 12 7 34 11 49 3 15 5 30 5
33 0 2 6 20 14 38 25 61 36 203 21 301 -4 27 -7 52 -8 55 -2 16 3 22 12 16 6
-4 34 -6 63 -6z m3357 -198 c0 -10 -3 -21 -7 -25 -5 -4 -8 -11 -8 -14 0 -13
-59 -107 -82 -132 -13 -14 -23 -28 -23 -32 0 -4 -8 -12 -19 -17 -33 -18 -50
-20 -382 -37 -63 -3 -125 -6 -139 -8 -40 -4 -64 9 -67 35 -10 93 -11 109 -4
113 10 7 66 16 116 21 44 4 64 7 181 30 121 24 126 25 174 36 25 6 56 13 70
15 14 2 36 7 50 9 14 3 38 8 55 11 16 3 30 6 31 7 2 1 14 3 28 3 19 1 26 -3
26 -15z m-2363 -125 c3 -3 13 -1 23 4 10 5 20 6 24 3 4 -4 30 -8 59 -9 29 -1
62 -2 75 -3 47 -2 31 -29 -78 -137 -61 -60 -115 -110 -120 -112 -23 -8 -220
202 -220 234 0 7 14 17 32 22 34 9 196 8 205 -2z m1387 -7 c2 -2 11 -32 19
-66 18 -77 13 -82 -74 -88 -35 -2 -84 -7 -109 -10 -62 -9 -86 -12 -155 -19
-33 -4 -73 -8 -90 -11 -94 -12 -163 -16 -168 -8 -3 4 -7 37 -9 73 l-3 64 40 7
c22 4 63 10 90 13 28 4 73 11 100 16 57 11 118 18 220 26 38 3 71 7 73 9 5 4
61 0 66 -6z m-5429 -12 c116 -6 137 -16 155 -75 20 -65 20 -70 5 -82 -7 -6
-60 -13 -117 -16 -56 -3 -108 -7 -115 -9 -7 -2 -15 1 -19 7 -4 7 -9 7 -13 0
-13 -22 -70 17 -106 72 -19 30 -35 60 -35 66 0 5 -4 10 -10 10 -5 0 -10 8 -10
18 0 19 28 20 265 9z m4586 6 c1 -5 3 -21 5 -38 4 -28 6 -49 18 -175 3 -25 7
-70 11 -99 3 -30 7 -104 10 -163 2 -60 7 -113 10 -117 3 -5 -1 -16 -9 -24 -12
-12 -52 -14 -223 -12 -114 1 -217 3 -228 4 -21 1 -27 28 -27 124 0 69 0 71 20
93 9 10 43 51 74 89 94 117 305 324 331 325 4 0 7 -3 8 -7z m-2283 -21 c28 -4
6 -37 -90 -137 l-103 -105 -32 16 c-18 9 -33 20 -33 25 0 5 -5 9 -11 9 -15 0
-135 86 -176 126 -56 53 -47 63 60 66 94 3 362 3 385 0z m-1638 -17 c25 -2 88
-6 140 -10 188 -13 253 -20 305 -34 17 -4 38 -7 48 -5 9 1 17 -1 17 -6 0 -4 9
-6 20 -3 11 3 20 1 21 -3 0 -5 2 -28 5 -50 l6 -42 -44 -7 c-24 -4 -52 -9 -63
-12 -33 -7 -285 -1 -285 7 0 3 -24 5 -53 6 -28 1 -101 5 -162 9 -60 4 -126 9
-145 10 -19 1 -42 3 -51 4 -9 0 -26 22 -39 49 -12 26 -25 54 -30 62 -20 43 14
45 310 25z m860 -56 c0 -5 4 -8 9 -5 5 4 22 -4 38 -17 46 -37 108 -77 120 -77
6 0 13 -3 15 -7 2 -5 29 -26 61 -48 32 -21 89 -65 126 -96 l67 -57 0 -93 -1
-94 -259 0 c-250 0 -259 0 -266 20 -4 11 -6 23 -4 26 4 7 9 55 19 174 14 172
23 243 36 267 10 19 39 25 39 7z m4621 -278 c4 -1 -2 -28 -12 -62 -10 -33 -17
-65 -13 -70 3 -5 1 -9 -4 -9 -5 0 -12 -12 -15 -28 -3 -15 -15 -40 -27 -54 -20
-26 -22 -27 -113 -22 -50 3 -161 6 -245 8 -84 2 -155 6 -158 9 -4 4 -14 2 -24
-3 -10 -5 -20 -7 -24 -3 -3 3 -60 7 -127 8 -129 2 -137 5 -140 55 -1 14 -2 42
-3 63 -2 27 2 37 13 38 9 1 27 2 41 4 14 2 59 6 100 9 42 2 96 7 120 10 25 3
79 8 120 11 41 3 95 7 120 10 25 2 79 7 120 10 171 13 215 17 217 19 3 2 22 1
54 -3z m-4938 -108 c-2 -48 -5 -93 -7 -99 -2 -6 -21 -9 -43 -8 -21 1 -80 4
-131 5 -52 2 -97 8 -100 14 -8 12 -10 155 -2 156 3 0 14 2 25 4 30 6 155 19
192 19 18 1 33 5 33 9 0 4 8 3 18 -2 16 -9 18 -21 15 -98z m-467 70 c8 -3 11
-28 10 -80 -3 -87 11 -78 -136 -87 -41 -3 -75 -6 -75 -7 0 -1 -106 -2 -235 -3
-222 -1 -236 0 -258 19 -29 24 -87 124 -78 133 8 7 16 8 211 16 82 4 150 8
151 9 5 4 398 5 410 0z m4324 -87 c-4 -25 -6 -59 -6 -76 1 -33 2 -32 -34 -36
-94 -10 -131 -10 -137 -1 -12 20 -15 139 -4 146 6 4 51 8 100 10 l88 2 -7 -45z
m-2711 -355 c39 -43 51 -59 51 -70 0 -5 3 -11 8 -13 7 -3 94 -141 123 -196 13
-24 15 -40 8 -65 -35 -131 -61 -224 -66 -237 -3 -8 -7 -19 -8 -25 -2 -5 -19
-66 -40 -135 -35 -122 -41 -142 -49 -177 -2 -10 -12 -37 -21 -61 -14 -35 -21
-41 -37 -36 -28 8 -126 38 -233 69 -49 14 -99 30 -110 35 -11 5 -56 21 -100
35 -44 14 -87 29 -95 32 -8 3 -17 7 -20 8 -24 6 -71 24 -160 62 -154 66 -165
70 -285 125 -60 27 -119 53 -130 58 -54 22 -135 64 -135 70 0 4 -11 19 -24 33
-13 14 -56 92 -95 174 -40 81 -83 170 -97 197 -37 72 -44 93 -31 93 7 0 62 3
122 7 386 22 412 24 630 31 99 4 181 7 182 8 1 1 133 3 293 4 l293 2 26 -28z
m1600 5 c6 -4 11 -3 11 1 0 5 51 8 113 7 61 -1 112 -3 112 -4 0 0 70 -3 155
-5 290 -7 732 -28 875 -42 33 -3 74 -6 90 -7 49 -2 58 -13 38 -47 -10 -16 -21
-29 -25 -29 -4 0 -8 -4 -8 -9 0 -8 -78 -129 -107 -166 -4 -5 -42 -62 -83 -125
-41 -63 -77 -117 -80 -120 -4 -3 -16 -21 -28 -40 -11 -20 -29 -45 -39 -56 -19
-22 -80 -47 -93 -39 -5 3 -10 2 -12 -3 -3 -7 -291 -101 -378 -122 -42 -11
-178 -53 -280 -87 -25 -8 -49 -16 -55 -17 -5 -1 -23 -7 -40 -13 -24 -9 -58
-18 -95 -26 -3 0 -32 -10 -65 -22 -33 -12 -65 -20 -72 -18 -14 5 -77 131 -121
243 -17 41 -40 98 -53 125 -12 28 -23 53 -24 58 -2 4 -4 9 -5 12 -1 3 -3 8 -4
13 -1 4 -9 23 -18 42 -9 19 -24 56 -33 81 l-16 45 86 169 c47 93 94 179 105
190 16 17 30 20 79 19 33 -1 64 -5 70 -8z m-3404 -74 c6 -1 16 -17 24 -34 8
-18 21 -41 29 -50 8 -10 12 -18 9 -18 -4 0 6 -21 21 -47 51 -86 142 -262 142
-273 0 -12 -45 -8 -115 11 -22 6 -53 13 -70 16 -41 7 -49 15 -90 95 -42 84
-115 219 -125 233 -15 21 -18 55 -5 63 12 6 149 9 180 4z m5256 -36 c-10 -17
-39 -64 -64 -104 -26 -40 -47 -75 -47 -78 0 -2 -5 -10 -10 -17 -21 -24 -90
-138 -90 -147 0 -6 -4 -10 -10 -10 -5 0 -10 -7 -10 -15 0 -8 -3 -15 -8 -15 -4
0 -12 -10 -17 -22 -11 -25 -68 -45 -180 -64 -16 -3 -45 -9 -64 -14 -19 -5 -37
-8 -39 -6 -3 4 107 187 118 196 4 3 20 28 35 55 16 28 33 52 37 53 4 2 8 8 8
13 0 6 18 37 40 71 23 33 48 74 56 90 20 39 35 43 158 44 l104 2 -17 -32z
m-3010 -347 c92 -29 91 -28 85 -73 -7 -52 -14 -92 -31 -191 -8 -44 -17 -98
-20 -120 -15 -113 -15 -112 -38 -110 -12 2 -42 8 -67 15 -25 7 -49 13 -55 15
-30 7 -45 19 -45 39 0 11 16 80 36 151 19 72 35 137 36 145 0 8 4 20 8 25 4 6
6 18 5 28 -2 9 1 17 6 17 6 0 8 4 5 9 -9 14 12 61 27 61 8 0 29 -5 48 -11z
m674 -111 c22 -62 39 -116 38 -120 -2 -4 2 -8 7 -8 6 0 10 -6 10 -14 0 -8 5
-27 11 -43 6 -15 11 -30 12 -33 0 -3 13 -38 29 -79 15 -41 25 -77 23 -81 -2
-4 -45 -24 -95 -45 -107 -45 -113 -42 -129 48 -6 34 -13 73 -16 87 -3 14 -7
39 -10 55 -3 17 -8 44 -12 60 -3 17 -7 39 -9 50 -1 11 -3 20 -4 20 -1 0 -3 11
-4 25 -4 27 -14 89 -22 130 -4 24 0 27 53 42 32 9 63 17 68 17 6 1 28 -49 50
-111z m-2110 -388 c0 -1 10 -3 22 -4 32 -4 58 -30 87 -90 34 -69 33 -83 -1
-80 -94 7 -135 29 -187 98 -24 33 -42 65 -40 71 4 9 119 14 119 5z m3558 -42
c16 -12 12 -19 -37 -69 l-55 -57 -78 -4 c-101 -6 -107 -3 -86 33 10 16 21 29
25 29 4 0 8 5 8 11 0 6 15 24 33 40 29 26 39 29 103 29 41 0 77 -5 87 -12z
m-1751 -55 c64 -47 63 -54 -17 -97 -61 -32 -88 -33 -141 -3 -85 47 -82 42 -45
73 60 52 104 75 131 68 13 -3 46 -21 72 -41z m-519 -120 c79 -16 100 -28 93
-52 -3 -9 -7 -34 -11 -56 -11 -74 -16 -100 -25 -130 -5 -16 -11 -50 -15 -75
-10 -76 -13 -93 -29 -167 -9 -40 -18 -86 -21 -102 -3 -17 -10 -43 -16 -58 -6
-15 -10 -29 -9 -31 1 -1 -1 -16 -5 -32 -6 -26 -10 -29 -33 -24 -15 4 -34 12
-42 18 -8 7 -35 22 -60 34 -25 13 -60 36 -79 52 l-33 30 17 72 c10 40 20 78
24 83 3 6 6 15 8 20 4 19 12 50 28 105 9 30 17 62 19 70 2 8 10 35 17 60 7 25
13 50 15 55 21 97 54 162 76 149 5 -3 42 -13 81 -21z m1641 -6 c9 -18 37 -63
61 -102 25 -38 49 -77 53 -85 4 -8 26 -47 50 -87 23 -39 42 -80 42 -90 -1 -20
-98 -97 -168 -133 l-43 -23 -26 24 c-29 28 -83 117 -83 139 0 8 -6 26 -13 40
-7 14 -28 63 -46 110 -18 47 -39 100 -47 119 -8 19 -11 37 -7 42 13 13 161 67
167 61 3 -3 6 -1 6 4 0 24 38 10 54 -19z m-2334 -4 c124 -56 159 -74 164 -82
3 -4 -5 -42 -18 -84 -13 -42 -21 -79 -18 -82 3 -3 1 -5 -5 -5 -5 0 -10 -6 -10
-12 0 -24 -76 -233 -91 -250 -18 -21 -27 -17 -132 61 -113 84 -115 87 -97 124
5 10 10 28 13 40 2 12 28 81 57 152 29 72 56 138 60 147 7 19 16 18 77 -9z
m1721 -30 c7 -16 15 -37 20 -48 4 -11 24 -69 45 -130 20 -60 55 -155 76 -210
22 -55 41 -104 43 -110 1 -5 5 -18 10 -28 4 -10 2 -23 -5 -31 -14 -18 -252
-136 -273 -136 -13 0 -41 49 -43 75 0 14 -24 117 -31 135 -3 8 -8 24 -9 35 -2
11 -8 40 -14 65 -5 25 -11 59 -14 75 -3 17 -12 66 -21 110 -29 140 -29 142 -3
156 13 7 32 14 42 16 11 2 28 11 38 20 10 9 18 13 18 10 0 -3 15 0 33 8 51 22
76 19 88 -12z m-2446 -8 c36 -23 116 -219 100 -245 -5 -8 -160 1 -160 10 0 1
-13 3 -30 5 -31 4 -95 66 -95 92 0 7 -4 13 -10 13 -5 0 -10 7 -10 15 0 8 -3
15 -8 15 -8 0 -42 73 -42 89 0 21 225 26 255 6z m3879 -20 c27 -6 51 -16 54
-23 5 -15 -67 -152 -91 -174 -22 -20 -52 -26 -154 -32 -82 -4 -100 2 -85 30 6
11 10 22 10 27 2 48 52 160 80 177 21 13 119 10 186 -5z m-1981 -444 c27 -10
113 -65 151 -95 16 -13 17 -18 6 -31 -15 -18 -150 -88 -150 -77 0 3 -5 1 -10
-4 -19 -19 -90 -4 -177 37 -46 22 -83 44 -81 48 6 15 131 111 145 111 7 0 13
5 13 11 0 5 4 8 8 5 4 -2 14 -1 22 4 15 9 31 7 73 -9z m1500 -103 c20 -21 67
-97 67 -108 0 -5 4 -10 9 -10 10 0 18 -28 26 -95 7 -58 -10 -87 -110 -189
l-68 -69 -28 34 c-31 37 -117 201 -123 234 -2 11 -5 25 -6 30 -5 23 3 34 66
84 55 45 140 100 152 101 2 0 9 -6 15 -12z m-2962 -15 c58 -28 193 -119 217
-145 l23 -26 -71 -208 c-39 -115 -72 -213 -73 -219 -2 -5 -13 -32 -26 -60
l-22 -50 -29 35 c-36 44 -62 103 -90 203 -11 44 -30 88 -41 100 -10 11 -19 27
-19 34 0 7 -4 13 -8 13 -5 0 -14 10 -21 23 -11 20 -9 32 14 83 14 32 26 60 25
62 0 1 8 23 20 48 11 26 20 48 20 49 0 13 32 75 39 75 4 0 23 -8 42 -17z
m2319 -289 c75 -187 90 -215 145 -274 36 -38 61 -78 83 -130 16 -41 49 -120
71 -174 23 -55 41 -106 41 -114 0 -14 -49 -112 -61 -122 -3 -3 -30 -43 -59
-90 -75 -120 -213 -324 -222 -328 -5 -2 -8 -9 -8 -16 0 -17 -50 -62 -77 -70
-12 -4 -24 -2 -28 5 -8 12 -42 145 -51 194 -2 16 -7 38 -10 47 -7 24 -14 58
-20 98 -2 19 -6 42 -9 50 -2 8 -7 29 -10 45 -2 17 -7 41 -10 55 -3 14 -8 36
-11 50 -18 96 -24 129 -28 155 -2 17 -7 41 -10 55 -9 38 -26 146 -41 255 -2
17 -12 64 -20 105 -21 97 -22 100 -30 132 -9 35 0 43 110 100 50 25 110 57
135 71 25 13 51 23 59 22 7 -1 35 -55 61 -121z m-1599 5 c145 -88 164 -103
167 -130 2 -14 -11 -94 -28 -179 -17 -85 -33 -166 -34 -180 -2 -14 -6 -34 -9
-45 -4 -11 -9 -36 -12 -55 -11 -62 -65 -354 -71 -380 -3 -14 -7 -34 -8 -45 -2
-11 -4 -20 -5 -20 -2 0 -4 -16 -7 -35 -2 -19 -16 -84 -32 -145 -19 -78 -32
-111 -43 -113 -22 -4 -110 135 -242 385 l-64 122 39 118 c36 107 114 366 123
403 1 8 11 42 21 75 10 33 19 62 19 65 1 3 8 25 15 50 7 25 14 47 15 50 1 3 5
19 9 35 12 49 28 75 46 75 9 0 55 -23 101 -51z m753 -301 c11 -10 23 -18 27
-18 12 0 93 -82 142 -145 39 -50 44 -61 35 -79 -6 -12 -12 -23 -12 -26 -1 -10
-30 -40 -39 -40 -4 0 -19 -11 -33 -25 -14 -14 -38 -32 -54 -40 -17 -9 -30 -21
-30 -27 0 -6 -3 -9 -6 -6 -3 4 -17 0 -30 -7 -37 -19 -80 -5 -167 54 -103 69
-147 109 -147 133 0 20 5 27 70 98 18 19 37 42 44 50 15 22 85 76 120 94 31
16 50 12 80 -16z m16 -856 c113 -72 310 -308 327 -393 6 -32 -20 -79 -59 -107
-19 -14 -94 -80 -140 -124 -16 -16 -33 -28 -38 -28 -6 0 -10 -4 -10 -9 0 -5
-21 -18 -47 -29 -54 -23 -99 -21 -141 5 -43 27 -147 107 -150 115 -2 4 -10 8
-17 8 -8 0 -46 30 -85 68 -83 80 -87 99 -34 169 20 27 40 50 45 51 5 2 9 8 9
13 0 9 58 86 109 144 15 17 57 57 95 88 71 61 82 63 136 29z"/>
</g>
</svg>
