<svg width="79" height="71" viewBox="0 0 79 71" fill="none" xmlns="http://www.w3.org/2000/svg">
<g style="mix-blend-mode:difference">
<path d="M59.048 0.75831C56.3282 0.638794 53.6083 0.559114 50.8885 0.519276C47.9687 0.479437 41.849 0.240408 40.3691 0.16073C39.4892 0.120892 36.4493 -0.0782988 35.9694 0.200572C35.7694 0.320087 35.8494 0.917664 35.5294 0.957503C34.4494 1.1567 31.2896 1.31605 30.2097 1.31605C29.3298 1.31605 27.0899 1.3559 26.05 1.27622C24.93 1.19654 25.21 0.240413 23.7301 0.240413C21.9702 0.200574 20.2503 0.120889 18.2904 0.120889C16.1705 0.120889 14.5306 0.280246 12.4508 0.359924C10.0909 0.439601 7.81103 0.559124 5.57116 0.67864C4.73121 0.718478 1.89137 2.3917 0.411459 3.26815C0.291466 3.34783 -0.0685131 3.86572 0.0114822 4.34379C0.531452 6.65443 3.69127 12.5904 4.09125 13.3075C4.37123 13.7855 4.9312 13.7855 5.29118 14.2636C5.69115 14.8612 5.89115 15.7775 6.25113 16.4547C7.61105 19.1637 8.69099 21.8329 9.85092 24.6216C11.0508 27.4502 12.1308 30.3584 13.4907 33.1471C13.7707 33.7049 15.4106 33.3861 15.7306 33.904C16.3305 34.8602 25.49 50.0785 25.93 50.7956C26.2499 51.2737 25.65 51.8713 25.81 52.3095C26.0899 53.1859 29.4497 58.6438 30.0097 59.4008C30.3297 59.8788 31.3296 59.9585 31.5696 60.3569C31.8096 60.7553 37.0493 69.0815 37.9292 70.1572C38.0092 70.2369 38.2892 70.5954 38.5692 70.7149C39.0092 70.8743 40.2491 71.0336 40.6091 70.9938C40.8491 70.954 41.0091 70.8743 41.1691 70.6352C41.689 69.958 48.4486 59.9187 50.8085 56.2535C51.8084 54.6998 53.5683 52.3493 54.5683 50.955C55.2082 50.0785 54.4083 49.2818 54.8083 48.485C56.6081 44.8597 65.4076 30.2389 67.4075 26.9721C67.8075 26.3347 68.4874 26.4144 68.8074 25.8168C69.0474 25.3786 70.1273 23.4663 70.5273 22.2712C70.6473 21.9525 70.0474 21.2354 70.1674 21.0362C70.6473 20.0402 73.0872 16.2157 74.4871 13.5465C75.1671 12.2717 78.4069 7.49104 78.8068 6.01701C78.9268 5.53895 79.2468 5.02104 78.6469 3.98524C78.4869 3.70637 78.3669 3.4275 78.1269 3.34782C76.7669 2.86976 71.2473 0.837992 68.9674 0.240413C68.4475 0.120897 67.9675 0.0412171 67.1675 0.00137844C66.5276 -0.0384602 66.3276 0.798153 65.7276 0.837992L59.048 0.75831ZM65.9676 8.36749C66.2476 8.64636 67.0075 9.722 67.2875 10.1204C67.4475 10.3196 67.4475 10.3594 67.2875 10.4789C66.6076 10.9968 61.9278 14.2636 61.5279 14.4628C61.2479 14.6221 60.1679 15.1401 59.688 15.3791C59.488 15.4588 59.208 15.4986 59.128 15.3392C58.848 14.8612 58.568 14.3831 58.2481 13.9051C58.1681 13.7855 58.1681 13.7059 58.2881 13.6262C59.248 12.9091 60.2079 12.192 61.1679 11.4749C62.2078 10.718 63.2478 10.0009 64.2477 9.24394C64.6877 8.92523 65.1276 8.60652 65.6076 8.28781C65.8076 8.24797 65.8876 8.28781 65.9676 8.36749ZM50.1285 39.9197C49.8085 39.9994 49.4486 40.1189 49.1286 40.2384C48.8486 40.3181 48.6086 40.3977 48.3286 40.4774C48.0087 40.5969 47.6887 40.6766 47.3687 40.7961C46.9687 40.9156 46.6487 40.9953 46.2488 41.1148C46.1288 41.1547 45.9288 41.2344 45.8488 41.2742C45.7288 41.314 45.6088 41.314 45.5688 41.1945C45.2088 40.5571 44.9289 39.84 44.6489 39.1627C44.3289 38.4456 43.7689 37.0513 43.6489 36.7724C43.6089 36.6131 43.5689 36.5334 43.6889 36.374C43.8889 35.9756 44.0089 35.7765 44.2089 35.3781C44.4489 34.8602 44.6888 34.3423 45.0088 33.8642C45.0888 33.7447 45.1688 33.7049 45.3288 33.7049C45.6488 33.7049 45.9288 33.7049 46.2488 33.7049C46.5688 33.7049 46.9287 33.7049 47.2487 33.7049C47.6887 33.7049 48.1686 33.7447 48.6086 33.7447C49.1286 33.7447 53.8883 33.9439 54.4083 33.9837C55.4082 34.0236 55.7682 34.1032 56.7681 34.1431C56.8081 34.1431 56.8881 34.3024 56.8481 34.3423C56.2082 35.2984 55.5682 36.2545 54.9282 37.2106C54.6083 37.6887 54.2883 38.2066 53.9283 38.6847C53.8883 38.7644 53.7683 38.8042 53.6483 38.844C53.3284 38.9237 51.6484 39.4815 51.3285 39.601C50.9285 39.7205 50.5285 39.8002 50.1285 39.9197ZM50.2885 45.5768C50.2485 45.6166 50.1685 45.6963 50.1285 45.7361C49.8485 45.9751 49.1286 46.4931 48.6886 46.6524C48.6086 46.6922 48.0887 46.015 48.0487 45.8955C47.7687 45.1385 47.4487 44.5011 47.1687 43.6645C47.1287 43.545 46.9687 43.2263 46.9687 43.1466C46.9687 43.0669 47.0087 42.9872 47.0887 42.9872C47.4487 42.8677 48.2087 42.549 48.4486 42.4694C48.4886 42.4694 48.5286 42.4694 48.5686 42.5092C48.8086 42.8677 49.7686 44.3816 50.2085 45.2182C50.2485 45.3377 50.3685 45.4572 50.2885 45.5768ZM25.09 28.8445C24.3701 28.9641 24.1301 29.0039 23.7301 28.9641C23.4101 28.9242 19.7303 28.6852 19.3303 28.6453C19.1703 28.6453 18.6904 27.6095 18.8504 27.5299C19.0104 27.4502 19.6103 27.5299 19.8903 27.5299C20.8503 27.5697 21.4102 27.6494 22.3702 27.6892C22.9301 27.7291 23.5701 27.7689 24.0501 27.8486C24.57 27.9282 24.93 28.0079 25.41 28.0876C25.41 28.3266 25.45 28.486 25.45 28.6453C25.45 28.8047 25.33 28.8047 25.09 28.8445ZM25.33 30.199L25.29 31.7926L23.2901 31.7129C23.2101 31.7129 23.1301 31.6332 23.1301 31.5536V30.4381L25.33 30.199ZM25.29 26.0558C24.81 25.9762 23.1701 25.7371 22.4502 25.6176C22.0502 25.5379 21.1702 25.3786 20.7703 25.2591C20.7303 25.2591 20.6503 25.1794 20.6503 25.1396C20.6503 24.4623 20.6903 23.8647 20.6903 23.1476C21.1302 23.2671 23.3701 23.5858 23.7701 23.785C24.1701 23.9842 25.69 24.542 25.81 24.6216C25.93 24.7013 25.53 25.6176 25.45 25.8965C25.49 26.016 25.53 26.0957 25.29 26.0558ZM25.13 22.3907C24.77 22.2313 24.1701 22.1118 23.8901 21.8329C23.4901 21.5142 23.8901 20.8768 24.2501 20.3988C24.4101 20.1996 24.53 20.0004 24.57 19.841C24.65 19.6817 26.7699 21.076 26.9299 21.1557C27.2499 21.3549 27.7699 21.7533 28.0498 21.9525C28.0898 21.9923 27.2099 23.0679 27.0899 23.2273C26.3699 23.1078 25.77 22.7094 25.13 22.3907ZM22.6101 15.7775C22.5702 15.7376 22.4902 15.5783 22.5301 15.5384C22.7301 15.1401 22.9701 14.7018 23.2101 14.3034C23.2101 14.2636 23.2501 14.2636 23.2501 14.2238C23.7701 14.3831 24.1301 14.7417 24.57 15.0205C24.65 15.1002 24.69 15.14 24.65 15.2596C24.4501 15.658 24.2901 16.0563 24.0901 16.4547C24.0501 16.5344 24.0101 16.5742 23.8901 16.4946C23.4501 16.2954 23.0101 16.0563 22.6101 15.7775ZM31.2096 24.8208C31.2096 25.1395 31.2897 25.6575 31.0497 25.8965C30.9697 25.9762 30.8497 26.0558 30.7297 26.0558C29.9297 26.0957 29.3298 26.0957 28.5298 26.1355C28.2498 26.1355 27.9698 26.1355 27.7298 26.1355C27.6498 26.1355 27.6099 26.1355 27.5699 26.0957C27.5299 26.0558 27.5299 26.016 27.4899 26.016C27.5299 25.8965 27.5699 25.8168 27.6499 25.6973C28.0098 25.1794 28.3698 24.7013 28.7298 24.2233C29.0498 23.8249 29.3698 23.3867 29.6897 22.9883C30.1697 22.3907 30.6897 21.8329 31.2497 21.2752C31.2097 22.6297 31.2096 24.4224 31.2096 24.8208ZM30.0097 19.7215C29.8097 19.9605 29.5698 20.1996 29.3698 20.4386C28.7698 19.9605 27.9698 19.2833 27.3699 18.845C26.7299 18.367 26.0499 17.9288 25.41 17.4905C25.29 17.4109 25.25 17.3312 25.33 17.1718C25.49 16.8531 25.65 16.4946 25.81 16.1759C25.89 15.9767 25.93 15.9767 26.09 16.0962C26.5299 16.4149 26.9699 16.7336 27.3699 17.0523C27.5299 17.1718 27.6899 17.371 27.8098 17.5304C28.0898 17.9288 28.4898 18.1678 28.8098 18.4467C29.0898 18.7255 29.6497 19.1638 29.9697 19.4028C30.1297 19.5223 30.1297 19.602 30.0097 19.7215ZM27.0499 31.3942C27.0899 30.9161 27.1299 30.4381 27.1699 29.96C27.2099 29.482 27.2499 28.9641 27.3299 28.486C27.3299 28.3665 27.3699 28.247 27.3699 28.1274C27.3699 28.0876 27.4099 28.0876 27.4099 28.0478C27.4899 27.9681 27.6099 27.9681 27.7298 28.0079C27.8098 28.0478 27.8898 28.0876 27.9698 28.1274C28.0498 28.1673 28.1298 28.2071 28.1698 28.2868C28.2498 28.3665 28.3698 28.4063 28.4498 28.486C29.2898 28.9641 30.1297 29.5616 30.8497 30.199C31.0097 30.3186 31.0497 30.3584 31.0497 30.5576C31.0497 30.956 31.0497 31.3942 31.0097 31.7926C29.7697 31.7926 28.4898 31.7926 27.2499 31.7926C27.1699 31.7926 27.1299 31.7926 27.0499 31.7926C27.0499 31.6332 27.0099 31.5137 27.0499 31.3942ZM30.1697 27.9283C30.0897 27.8486 29.8897 27.6095 30.0097 27.5299C30.0497 27.5299 30.0497 27.5299 30.0897 27.5299C30.4097 27.4502 30.6897 27.5299 31.0497 27.49C31.4496 27.4502 31.8096 27.4502 32.2096 27.4502C32.4496 27.4502 32.6896 27.4502 32.9295 27.4502C33.1695 27.4502 33.4095 27.4103 33.6495 27.49C33.7695 27.5299 33.7695 27.5697 33.7295 27.6892C33.6495 27.8087 33.5295 27.9283 33.4095 28.0478C33.2495 28.2071 33.0895 28.3665 32.9295 28.5258C32.8095 28.6453 32.6896 28.8047 32.5296 28.9641C32.4096 29.0836 32.4496 29.0836 32.2896 29.2031C32.2496 29.2031 32.1296 29.2828 32.1296 29.2828C32.0496 29.2828 32.0096 29.2828 31.9696 29.2429C31.8896 29.2031 31.8496 29.1234 31.7696 29.0836C31.5696 28.9641 31.4496 28.8844 31.2497 28.7649C30.7697 28.4462 30.4897 28.2071 30.1697 27.9283ZM33.1695 30.2389C33.2495 30.1194 33.3295 30.0397 33.4495 29.96C33.9695 29.482 34.4495 28.9242 34.8894 28.3665C35.2894 27.8486 35.6894 27.3307 36.0894 26.8128C36.1694 26.6932 36.2894 26.5339 36.3694 26.4144C36.4493 26.3347 36.6093 26.1754 36.6093 26.0558C36.5693 25.5379 33.3695 26.2949 33.0095 25.9363C32.8895 25.8168 32.8895 25.4981 32.8895 25.3387C32.8496 24.7412 32.8096 23.9045 32.7696 23.2671C32.7296 22.9086 32.7295 20.837 32.7295 19.8808C32.8495 19.8012 33.0095 19.7215 33.1295 19.6817C33.3695 19.602 33.8095 19.3231 34.0095 19.4825C34.2895 19.7215 34.6094 20.0004 34.8094 20.2792C35.0494 20.5979 35.2494 20.9166 35.4894 21.2354C35.9294 21.9126 36.2894 22.5899 36.6893 23.307C37.0493 23.9842 37.2893 24.7412 37.3293 25.4981C37.3693 25.9363 37.4093 26.0558 37.3693 26.4542C37.3693 26.8924 37.2093 27.49 37.0493 27.8884C36.8493 28.4063 35.5694 31.4341 35.4894 31.7129C35.4494 31.7926 35.3694 31.8723 35.2894 31.8723C35.1694 31.9121 35.0494 31.8723 34.9294 31.8723C34.3295 31.8723 33.8495 31.8324 33.2495 31.7926C33.2495 31.7528 33.2095 31.7129 33.2095 31.6731C33.1295 31.4341 33.1295 31.1552 33.1295 30.9162C33.1295 30.7966 33.1295 30.717 33.1295 30.5974C33.1295 30.5178 33.0895 30.3584 33.1695 30.2389ZM38.8092 46.7321C38.9292 46.6524 39.0892 46.5727 39.2092 46.5329C39.2892 46.493 39.4492 46.4134 39.6091 46.4532C39.8491 46.493 40.2491 46.7321 40.5291 46.8914C40.7291 47.011 40.9291 47.1703 41.0891 47.3297C41.1291 47.3297 41.1291 47.3695 41.1291 47.4093C41.1291 47.4492 41.1291 47.489 41.1291 47.489C41.0891 47.6085 40.8091 47.728 40.6491 47.8077C40.3291 47.9272 39.9691 48.2061 39.6492 48.2061C39.6092 48.2061 39.5692 48.2061 39.5692 48.2061C39.2492 48.2061 38.9292 48.0069 38.6492 47.8874C38.5292 47.8476 38.4492 47.8077 38.3292 47.7679C38.2092 47.728 38.1293 47.6882 38.0493 47.6085C38.0093 47.5687 37.9692 47.5289 37.9292 47.489C37.8892 47.4093 37.9693 47.3695 38.0493 47.3297C38.1293 47.2898 38.2092 47.2101 38.2892 47.1305C38.3292 47.0906 38.3692 47.0508 38.4092 47.0508C38.5292 46.9313 38.6892 46.8516 38.8092 46.7321ZM38.5292 42.071C38.5692 42.0311 38.6492 41.9913 38.6892 41.9514C38.7292 41.9116 38.7292 41.9116 38.7692 41.8718C38.8492 41.7921 38.9292 41.7124 39.0492 41.6327C39.1292 41.5929 39.2492 41.5132 39.3292 41.4734C39.4092 41.4335 39.4892 41.3937 39.5692 41.3937C39.7292 41.4335 40.0091 41.5929 40.1691 41.7124C40.2891 41.7921 40.4091 41.9116 40.5291 42.0311L40.5691 42.071C40.5691 42.071 40.5691 42.1108 40.5691 42.1506C40.5291 42.2701 40.3691 42.3498 40.2491 42.3897C40.0491 42.5092 39.8091 42.6685 39.5692 42.7084C39.5292 42.7084 39.5292 42.7084 39.4892 42.7084C39.2892 42.7084 39.0492 42.549 38.8892 42.4694C38.8092 42.4295 38.7292 42.3897 38.6892 42.3498C38.6092 42.31 38.5692 42.2702 38.4892 42.2303C38.4492 42.1905 38.4092 42.1905 38.4092 42.1506C38.4092 42.1506 38.4892 42.1108 38.5292 42.071ZM40.1291 33.2666C39.3292 33.3065 38.8492 33.2666 38.0092 33.1471C37.9692 33.1471 37.9293 33.1471 37.8893 33.1073C37.8093 33.0674 37.6893 33.0276 37.6893 32.9479C37.5293 32.5894 37.4093 32.43 37.4893 32.1113C37.5693 31.8723 37.6093 31.5934 37.6493 31.3544C37.6893 31.1153 37.7693 30.8365 37.8093 30.5974C37.8493 30.3584 37.9292 30.1194 38.0092 29.8803C38.0892 29.6015 38.1692 29.3226 38.2492 29.0836C38.3292 28.8844 38.3692 28.6453 38.4092 28.4063C38.4492 28.2071 38.5292 27.9681 38.5692 27.7689C38.6092 27.6494 38.6492 27.5299 38.6892 27.4103C38.7692 26.8924 38.8892 26.3347 38.8492 25.8168C38.8092 25.4184 38.7692 25.0599 38.6892 24.7013C38.9692 24.781 39.2092 24.8208 39.4892 24.781C39.6892 24.781 39.9691 24.7412 40.2491 24.6615C40.2491 24.7013 40.2091 24.7412 40.2091 24.781C40.1291 25.0997 40.1291 25.4184 40.1291 25.7371C40.1291 26.016 40.1291 26.255 40.1291 26.5339C40.1691 26.8526 40.2491 27.1713 40.3291 27.5299C40.3691 27.7689 40.4091 28.0478 40.4891 28.2868C40.6091 28.725 40.7291 29.1632 40.8891 29.6015C41.1691 30.4779 41.289 30.956 41.529 31.6332C41.649 31.9918 41.689 32.0715 41.769 32.3105C41.809 32.43 41.689 32.9878 41.569 33.1073C41.529 33.1471 41.369 33.2268 41.2091 33.2268C40.8091 33.2268 40.5291 33.2666 40.1291 33.2666ZM39.0092 22.8687C39.1292 22.7891 39.3292 22.6297 39.4892 22.6297H39.5291C39.6491 22.6297 39.8091 22.7492 39.9291 22.8289C39.9691 22.8687 40.0091 22.8687 40.0891 22.9086C40.1291 22.9484 40.1691 22.9484 40.2091 22.9883C40.2491 22.9883 40.2491 23.0281 40.2491 23.0679C40.2491 23.1078 40.2091 23.1476 40.2091 23.1875C40.1691 23.2273 40.1291 23.2671 40.0891 23.307L40.0491 23.3468C40.0091 23.4265 39.9291 23.4663 39.8492 23.5062C39.7692 23.546 39.7292 23.5858 39.6492 23.6257C39.6092 23.6655 39.5292 23.7054 39.4892 23.6655C39.3692 23.6257 39.2092 23.5062 39.0892 23.3867C39.0092 23.307 38.9292 23.2273 38.8492 23.1476L38.8092 23.1078V23.0679C38.8092 22.9883 38.9692 22.9086 39.0092 22.8687ZM39.0092 19.2833C38.8492 19.1239 38.7292 19.0044 38.6092 18.8052C38.4892 18.6459 38.3292 18.5263 38.2892 18.3271C38.2892 18.2873 38.2892 18.2873 38.2892 18.2873C38.2892 18.2076 38.3292 18.1678 38.3692 18.128C38.3692 18.128 38.4092 18.0881 38.4492 18.0881C38.6492 18.0084 38.8492 17.9288 39.0492 17.8889C39.1292 17.8889 39.2492 17.8491 39.3292 17.8491C39.7691 17.8092 40.2091 17.8491 40.6491 18.0084C40.6891 18.0084 40.7691 18.0483 40.8091 18.0483L40.8491 18.0881C40.8491 18.0881 40.8491 18.128 40.8891 18.128C40.8891 18.2873 40.8491 18.4467 40.7291 18.606C40.6091 18.7654 40.4891 18.9247 40.3691 19.0841C40.2091 19.2833 40.0091 19.4825 39.8091 19.6418C39.7691 19.6817 39.7291 19.6817 39.6892 19.7215C39.6092 19.7613 39.5292 19.7215 39.4892 19.6817C39.2492 19.5621 39.1292 19.4028 39.0092 19.2833ZM41.2891 22.1915C41.2091 22.2712 41.1691 22.311 41.1291 22.311C40.9691 22.2313 40.7691 22.072 40.4891 21.9126C40.4491 21.8728 40.2891 21.7533 40.1291 21.6337C40.0091 21.5142 40.1291 21.315 40.2491 21.1955C40.3691 21.076 40.3691 21.0362 40.4891 20.9167C40.7291 20.6776 41.2091 20.1199 41.409 19.8808C41.729 19.4825 41.929 19.2833 42.249 18.9247C42.369 18.8052 42.489 18.6857 42.609 18.5662C42.689 18.5263 42.809 18.4467 42.889 18.4467C42.969 18.4467 43.009 18.4865 43.089 18.4865C43.2089 18.5263 43.2889 18.5263 43.4089 18.5662C43.5689 18.606 43.5689 18.6459 43.4889 18.7654C43.2089 19.1239 43.009 19.363 42.769 19.7613C42.329 20.3988 42.009 20.9963 41.649 21.6337C41.4891 21.8329 41.3691 21.9923 41.2891 22.1915ZM40.9291 11.196C40.8891 11.5546 40.6091 12.1522 40.5691 12.6701C40.4891 13.7457 40.4891 14.9409 40.4091 15.897C40.4091 15.9368 40.3691 15.9767 40.3291 15.9767C40.2491 16.0165 39.4492 16.0962 39.3292 16.0563C39.1292 16.0165 39.0892 16.0165 39.0892 15.897C39.0892 15.4588 38.9292 14.7417 38.9292 14.3034C38.9292 13.2278 38.6092 12.1522 38.5292 11.0765C38.4092 9.92119 38.0892 8.40733 38.1692 7.25201C38.1692 7.01298 38.2092 7.09266 38.3692 7.05282C39.1292 6.97314 40.3691 7.01298 41.1291 7.05282C41.1291 7.05282 40.9691 10.8773 40.9291 11.196ZM38.5292 20.7971C38.6092 20.8768 38.7692 21.0362 38.8492 21.1158C38.9692 21.2354 39.0092 21.4346 38.8892 21.5939C38.7692 21.7134 38.4092 21.9923 38.2492 22.072C38.1293 22.1516 38.0092 22.2712 37.8893 22.311C37.7293 22.0321 37.5693 21.7134 37.4093 21.4346C37.2093 21.1158 37.0493 20.7573 36.8493 20.4386C36.6493 20.08 36.4093 19.7613 36.1694 19.4028C36.0494 19.2434 35.9694 19.0442 35.8894 18.8849C35.8494 18.8052 35.8094 18.6857 35.8894 18.6458C36.0094 18.606 36.0894 18.5662 36.2094 18.4865C36.4893 18.4865 36.6893 18.5263 36.8493 18.7255C37.1693 19.1638 37.4093 19.4825 37.8093 19.841C38.0092 20.2394 38.2492 20.5581 38.5292 20.7971ZM36.4093 39.0432C36.5693 38.4456 36.6893 38.0871 36.8093 37.4497C36.8093 37.37 36.8893 37.1708 36.9293 37.131C37.0493 37.0911 37.6493 37.3302 37.9693 37.4098C38.0893 37.4497 38.0493 37.5692 38.0493 37.6489C38.0093 38.0074 37.6093 40.2384 37.5693 40.7165C37.5293 41.075 37.4893 40.9953 37.0093 40.9156C36.5293 40.7961 36.0094 40.6766 36.0494 40.5173C36.2094 39.84 36.3293 39.4018 36.4093 39.0432ZM37.7293 53.3453C37.8492 53.2258 37.9292 53.1063 38.0092 52.9867C38.0492 52.9469 38.0892 52.8672 38.1692 52.8274C38.3292 52.6282 38.4892 52.429 38.6892 52.2697C38.8492 52.1103 39.0092 51.9908 39.2092 51.8713C39.3292 51.7916 39.4892 51.6322 39.6892 51.7119C40.0091 51.8314 40.4891 52.2298 40.8091 52.5884C41.0491 52.8274 41.2891 53.1063 41.489 53.425C41.529 53.4648 41.529 53.5046 41.569 53.5843C41.569 53.6242 41.569 53.7038 41.569 53.7437C41.529 53.9827 41.1691 54.2217 41.0091 54.3413C40.6491 54.5803 40.2091 55.0583 39.7691 55.0982C39.7292 55.0982 39.6892 55.0982 39.6492 55.0982C39.2892 55.0982 38.8492 54.6998 38.5292 54.5006C38.4092 54.4209 38.2492 54.3413 38.1292 54.2217C38.0092 54.1421 37.8893 54.0225 37.7693 53.9429C37.7293 53.903 37.6493 53.8234 37.6093 53.7437C37.5293 53.5046 37.6493 53.425 37.7293 53.3453ZM41.2891 38.2066C41.2891 38.0871 41.2091 37.6489 41.1691 37.4895C41.489 37.37 41.809 37.3302 42.089 37.2106C42.209 37.1708 42.249 37.37 42.289 37.4895C42.449 37.9676 42.689 38.605 42.889 39.1229C43.009 39.4815 43.4089 40.5969 43.5289 40.9555C43.0489 41.1547 42.649 41.3539 42.209 41.5132C42.049 41.5929 41.889 41.5531 41.849 41.2742C41.729 40.4376 41.409 39.0831 41.2891 38.2066ZM43.089 30.4779C42.769 29.721 42.449 28.9641 42.129 28.2071C41.969 27.8486 41.889 27.49 41.769 27.0916C41.689 26.7729 41.689 26.6534 41.649 26.3746C41.609 26.0558 41.609 25.777 41.649 25.4583C41.689 25.2192 41.809 24.6615 41.889 24.3826C42.009 23.9444 42.129 23.6655 42.289 23.2273C42.569 22.6297 42.889 21.9525 43.2889 21.3947C43.6889 20.837 44.0489 20.3191 44.5289 19.841C44.7688 19.602 44.7689 19.4426 45.0888 19.2833C45.2888 19.3629 45.8088 19.841 45.9288 19.9605C45.9688 19.9605 45.9688 20.0004 46.0088 20.0402C45.9688 21.2354 45.9288 23.546 45.9288 24.1037C45.9288 24.6216 45.8888 25.0997 45.8488 25.6176C45.8088 25.9363 44.7689 25.8168 44.5689 25.8168C44.2889 25.8168 43.9689 25.8168 43.6889 25.8168C43.4089 25.8168 43.1689 25.8168 42.889 25.8168C42.729 25.8168 42.449 25.777 42.329 25.8965C42.209 26.016 42.289 26.2152 42.369 26.3347C42.569 26.7331 42.889 27.0518 43.1689 27.3705C43.4489 27.7291 43.6889 28.0876 43.9689 28.4462C44.2089 28.725 44.4089 29.0039 44.6489 29.2828C45.0888 29.7608 45.4488 30.1194 45.8088 30.6373C46.0088 30.9161 45.8888 31.5934 45.8888 31.9121V31.952C45.2888 31.952 44.7288 31.952 44.1289 31.952C44.0089 31.952 43.9289 31.9121 43.8889 31.8324C43.5689 31.4739 43.2889 30.9958 43.089 30.4779ZM52.4484 20.1597C52.2484 20.2792 50.4485 21.6736 50.2485 21.4346C50.0486 21.1955 49.8885 20.9963 49.7285 20.7175C49.5686 20.4784 50.7285 19.7613 51.1285 19.4825C52.0884 18.8052 53.0484 18.0881 54.0083 17.4109C54.1283 17.3312 56.6081 15.2596 56.7281 15.1401C56.8481 15.0604 56.9281 15.0604 57.0081 15.1799C57.1681 15.5384 57.5281 16.136 57.7281 16.4946C57.7681 16.5742 57.7681 16.6539 57.6481 16.7336C56.2882 17.5702 53.7683 19.3231 52.4484 20.1597ZM56.4482 22.3907C56.0082 22.55 53.8083 23.307 53.3683 23.4265C53.0084 23.546 52.3684 23.8249 52.2484 23.785C52.1284 23.7452 51.8084 23.2273 51.6884 23.0281C51.6084 22.8687 51.6484 22.7094 51.8084 22.6696C52.1284 22.55 52.5684 22.2712 52.8884 22.1517C53.4083 21.9525 55.5282 20.8768 56.0482 20.6776C56.0882 20.6776 56.1682 20.7175 56.2082 20.7971C56.2482 20.8768 56.4481 21.8728 56.5281 22.1915C56.5681 22.311 56.4882 22.3508 56.4482 22.3907ZM51.3685 31.9121C51.3685 32.0316 51.3285 32.1113 51.2085 32.1113C50.6485 32.1113 50.1285 32.1113 49.5686 32.1113C48.9686 32.1113 48.3686 32.1113 47.7687 32.0715C47.7287 31.9121 47.7287 31.7129 47.6887 31.5536C47.6487 31.3145 47.6887 31.0357 47.6887 30.717C47.6887 30.5974 47.9287 30.2787 48.0087 30.199C48.3686 29.7608 48.5286 29.5218 48.9686 29.0836C49.2086 28.8445 49.4486 28.5657 49.6486 28.3665C49.8886 28.1275 50.1285 27.8486 50.4085 27.6494C50.6085 27.49 50.8085 27.3307 50.9685 27.2112C51.0485 27.7291 51.2885 30.0795 51.3285 30.7966C51.3285 31.1552 51.3285 31.5137 51.3685 31.9121ZM50.3285 24.9005C50.4085 25.0599 50.4885 25.2591 50.5685 25.4583C50.6485 25.777 50.6485 25.777 50.6885 25.8965C50.5285 25.8965 50.2885 25.8965 50.2085 25.8965C49.9685 25.8965 49.6886 25.9363 49.4486 25.9363C49.0886 25.9363 48.3686 25.8965 48.1687 25.9363C48.0887 25.9363 47.8487 25.9363 47.7687 25.8566C47.7287 25.8168 47.6887 25.777 47.6487 25.7371C47.6087 25.6575 47.5687 25.5379 47.5287 25.4184C47.4487 25.0599 47.4487 22.8289 47.4087 21.4346C47.9287 21.9525 48.1687 22.1915 48.6886 22.7492C49.2086 23.307 49.8885 24.1834 50.3285 24.9005ZM48.0887 27.251C48.2486 27.251 48.6086 27.3307 48.4886 27.4502C48.0087 27.9282 47.4887 28.4462 47.0487 28.8844C46.9287 29.0039 46.6887 29.2031 46.6887 29.2031C46.6887 29.2031 46.4887 29.0437 46.3288 28.8844C45.9688 28.5657 45.7288 28.2868 45.5288 28.0876C45.3288 27.8884 45.2088 27.7291 45.0488 27.4502C45.0088 27.4103 45.0088 27.3705 45.0488 27.3307C45.1288 27.1713 45.4888 27.1713 45.6888 27.1713C45.7288 27.1713 45.7688 27.1713 45.8088 27.1713C46.5287 27.1713 47.3287 27.2112 48.0887 27.251ZM54.5283 31.952L53.4083 32.0316C53.3283 32.0316 53.2083 31.952 53.2083 31.8723L53.1684 30.9162C53.1684 30.8365 53.2084 30.7966 53.2883 30.7966L54.6483 30.7568L54.5283 31.952ZM53.0084 28.8844C52.9284 28.8844 52.9284 28.0478 52.8884 27.8884C52.8484 27.8087 52.9284 27.7689 53.0484 27.7291C53.7683 27.6494 54.4883 27.5299 55.2082 27.4103C55.8082 27.3307 56.6081 27.2908 57.2081 27.2112C57.3681 27.2112 57.3681 27.1713 57.4481 27.4502C57.5281 27.6494 57.5681 28.0079 57.6081 28.247C57.6081 28.3266 57.5681 28.4063 57.4881 28.4063C57.0881 28.4462 56.5682 28.4462 56.3682 28.486C56.1282 28.5657 53.4483 28.8445 53.0084 28.8844ZM54.8883 25.8965C54.2083 25.9762 53.5283 26.0957 52.8084 26.2152C52.7684 25.9762 52.6884 25.6176 52.6884 25.6176C52.6884 25.6176 52.9284 25.4981 53.0884 25.4583C54.4083 25.2591 55.6482 24.781 56.9681 24.5818C58.0081 24.4225 59.088 24.2233 60.1279 24.0241C60.6479 23.9045 61.0479 23.785 61.5679 23.6655C61.7279 23.6257 62.5678 23.3468 62.6878 23.3468C62.8478 23.3468 62.8478 24.5818 62.8478 24.5818C62.8478 24.5818 62.3278 24.8208 62.0478 24.8607C61.2879 24.9802 60.5279 25.0997 59.808 25.1794C58.2081 25.4583 56.5282 25.6575 54.8883 25.8965ZM61.1679 20.7573C60.2479 21.1158 59.328 21.4346 58.408 21.7931C58.328 21.8329 58.1681 21.7533 58.1681 21.6736C57.9681 21.1158 57.7681 20.5979 57.5681 20.0402C57.5281 19.9207 57.5281 19.8012 57.6881 19.7613C58.1281 19.602 60.1279 18.2076 60.9679 17.9288C61.6079 17.7296 62.6078 17.2913 63.2478 16.9328C63.3278 16.893 63.4077 16.8133 63.4877 16.8133C63.5277 16.8133 63.6477 16.8531 63.6877 16.8929C63.8077 17.371 63.8477 17.6499 63.9677 18.128C64.0477 18.4865 64.1677 18.8451 64.2477 19.2036C64.2477 19.2833 64.2477 19.3231 64.2877 19.4825C64.2477 19.5223 64.1677 19.6418 64.0477 19.6817C63.0878 20.0402 62.1278 20.3988 61.1679 20.7573ZM61.7679 3.50717C63.3678 3.46733 64.6077 3.38767 65.4876 3.66654C63.7277 5.3796 62.6478 6.49507 60.9279 7.69023C60.4479 7.37152 59.968 6.77394 59.488 5.97717C59.968 5.33975 61.5279 3.50717 61.7679 3.50717ZM58.1281 7.57072C58.168 7.53088 58.2081 7.4512 58.2881 7.37152C58.768 7.84959 59.208 8.24797 59.608 8.68619C59.728 8.80571 59.688 8.88539 59.568 9.00491C59.208 9.36346 58.848 9.68217 58.528 10.0407C58.168 10.4391 57.8481 10.957 57.4481 11.3155C56.4482 12.2318 55.4082 13.0684 54.4083 13.9847C53.3683 14.9409 52.3284 15.897 51.2485 16.8929C50.8085 17.3312 50.4085 17.8491 49.9685 18.2873C49.7686 18.4865 49.0886 19.2434 48.8486 19.4426C48.7686 19.5223 48.6486 19.5223 48.5686 19.4426L47.9687 18.8849C47.8887 18.8052 47.8487 18.6459 47.9687 18.5263C48.4086 18.0483 49.8085 16.5344 50.3285 15.9767C51.1285 15.1401 51.8484 14.1839 52.6884 13.3473C53.4883 12.5505 54.2483 11.7139 54.9282 10.8375C55.9282 9.64233 57.0881 8.64636 58.1281 7.57072ZM48.1286 8.64636C48.4486 7.73007 48.6086 6.9333 48.9286 6.05685C49.2886 5.14057 49.5286 4.62266 50.0085 3.74621C50.3285 3.14863 50.3685 3.10879 51.0885 3.10879C51.2085 3.10879 55.8882 3.4275 55.8882 3.4275C55.8882 3.4275 54.8883 4.86169 54.3683 5.65847C53.3283 7.37153 52.2084 8.28781 51.0485 9.96103C50.8885 10.2001 50.5685 10.1602 50.3285 10.0407C49.7685 9.76184 48.9286 9.36345 48.3286 9.12442C48.0886 9.08458 48.0486 8.92523 48.1286 8.64636ZM49.4086 12.0326C49.5286 12.0725 49.6086 12.1123 49.5286 12.3115C49.3286 12.7099 48.6086 13.7059 48.6086 13.7059C48.6086 13.7059 47.5287 16.0962 46.6087 17.4905C46.1688 17.2117 45.7288 17.0921 45.2488 16.8929C45.2888 16.6938 45.3688 16.4946 45.4088 16.2954C45.8088 14.9409 46.2488 13.6262 46.7287 12.2717C46.8087 12.0326 46.9287 11.7538 47.0087 11.5147C47.0487 11.2359 47.2087 11.2757 47.3687 11.3554C48.0487 11.5147 48.7686 11.7936 49.4086 12.0326ZM43.8889 3.90556C43.9289 3.62669 44.2089 3.7462 44.5289 3.70637C45.0088 3.66653 46.6887 3.66654 46.9687 3.66654C47.4487 3.70637 47.3687 3.78604 47.2087 4.10475C46.8887 4.78201 46.1688 6.09669 45.7688 6.81378C45.3688 6.77395 44.0089 6.57475 43.4089 6.4154C43.5289 5.65846 43.7289 4.66249 43.8889 3.90556ZM43.089 8.28781C43.1289 8.04877 43.1689 8.04878 43.6089 8.12845C44.2489 8.24797 45.2488 8.40733 45.1688 8.64636C44.8089 9.80168 44.8888 9.76184 44.5289 10.5586C44.4889 10.6383 42.849 10.3594 42.729 10.3594L43.089 8.28781ZM42.129 14.3831C42.169 13.8254 42.249 13.2676 42.329 12.7099C42.369 12.431 42.369 12.1522 42.489 11.8733C42.489 11.8334 44.1289 12.1522 44.2889 12.1522C44.0489 13.4668 43.6889 14.662 43.4089 16.0165C43.4089 16.0563 43.3689 16.2157 43.3689 16.2954C42.889 16.2157 42.409 16.1759 41.929 16.0962C41.929 16.0563 41.929 15.9767 41.929 15.9368C41.969 15.3791 42.089 14.8612 42.129 14.3831ZM37.4893 2.79008C38.2092 2.7104 40.5291 2.79008 41.569 2.94943C41.649 2.94943 41.689 3.02912 41.689 3.06896C41.569 3.86573 41.409 4.78201 41.2091 5.57879C40.2091 5.61862 38.8892 5.61863 37.9292 5.61863C37.9292 5.57879 37.7293 5.26007 37.6893 5.10072C37.5293 4.50314 37.4493 3.38766 37.3693 2.98927C37.3293 2.86976 37.3693 2.79008 37.4893 2.79008ZM37.3293 16.1759L36.6093 16.2555L35.8494 12.6701L36.7293 12.3514L37.3293 16.1759ZM33.7695 4.86169H35.3694L35.9694 7.25201L36.5693 11.0367L35.5694 11.2359C35.4894 11.2359 35.4494 11.196 35.4094 11.1562L34.1295 6.13652L33.6495 5.10072C33.6095 4.9812 33.6495 4.86169 33.7695 4.86169ZM32.0896 6.69426C32.1296 7.01297 33.2895 11.0765 33.4895 11.7139C33.6495 12.2318 33.9295 12.7099 34.1695 13.188C34.2095 13.2278 34.2095 13.2676 34.2095 13.3473C34.4895 14.3433 34.7294 14.9807 34.9294 15.8571C35.0494 16.375 35.1694 16.6938 35.0094 16.7336C34.6494 16.8531 34.1295 17.0523 33.7695 17.2117C33.7295 17.132 33.6895 17.132 33.6895 17.0921C33.5295 16.4946 33.2095 15.3392 33.2095 15.3392C33.2095 15.3392 32.7695 14.423 32.5296 13.9449C32.3296 13.5863 32.1696 13.2278 31.9696 12.8692C31.7296 12.431 31.4096 11.9928 31.1296 11.5546C30.9697 11.2757 30.7697 10.9968 30.6097 10.718C30.3297 10.3196 30.0497 9.88135 29.7697 9.48297C29.6097 9.20409 29.4098 8.96506 29.2498 8.68619C29.0098 8.20813 28.9298 8.32764 28.6898 7.88942C28.6098 7.7699 28.6498 7.65039 28.8898 7.57072C29.8497 7.21217 30.6097 6.85363 31.6496 6.65443C31.7296 6.53492 32.0496 6.49507 32.0896 6.69426ZM28.4098 3.82589C29.3698 3.66653 30.1297 3.66654 30.7697 3.66654C30.9697 4.18444 31.1297 4.34379 31.2896 4.82185C30.9297 4.90153 27.5299 5.89749 27.5299 5.89749C27.0899 5.45926 26.5299 4.6625 26.4899 4.06492C27.0099 3.90557 27.6099 3.9454 28.4098 3.82589ZM24.85 7.05282C25.49 7.96911 26.1299 8.92523 26.8099 9.84152C27.4899 10.7578 28.2098 11.7139 28.9298 12.5904C29.7697 13.666 30.5697 14.7417 31.1697 15.897C31.4896 16.4547 32.0096 17.2515 32.2496 17.8491C32.3296 18.0084 32.1296 18.2475 31.8496 18.2873C31.5696 18.3271 26.8099 13.3872 26.09 12.5107C25.33 11.6343 25.05 10.3993 24.2901 9.56265C23.8501 9.08458 23.4501 8.64636 23.0101 8.20814C22.8901 8.08862 22.8901 7.9691 23.0501 7.88942C23.4901 7.57071 23.8901 7.252 24.33 6.9333C24.61 6.81378 24.65 6.81379 24.85 7.05282ZM18.6104 2.90959C19.2104 2.86975 21.2902 2.75024 21.7302 2.79008C22.5302 2.86976 22.3702 2.90959 22.7301 3.50717C23.1701 4.22427 23.1701 4.10476 23.5701 4.86169C23.7701 5.26008 23.8901 5.29992 23.7301 5.45927C23.3701 5.81782 22.4102 6.53491 21.9702 6.81378C21.8502 6.89346 21.6902 6.77394 21.6102 6.69426C20.7303 5.81781 18.2904 3.82589 18.1304 3.58685C17.6904 2.86976 17.7304 2.98927 18.6104 2.90959ZM16.6905 8.60652C16.6905 8.60652 17.8904 9.44313 18.1704 9.722C18.8104 10.3594 19.4903 10.957 20.1703 11.5546C20.7303 12.0725 21.3302 12.5505 21.8902 13.0286C22.0102 13.1083 22.0102 13.188 21.9302 13.3075C21.6902 13.666 21.4502 14.0644 21.2502 14.423C21.1702 14.5823 21.0902 14.5823 20.9703 14.5026C20.5703 14.2238 20.1703 13.9051 19.7703 13.6262C18.8104 12.9888 17.9304 12.2318 17.0105 11.5147C16.8105 11.3554 16.6105 11.2757 16.4105 11.1164C16.0905 10.8773 15.6506 10.718 15.4106 10.4789C15.6506 10.0407 16.6905 8.60652 16.6905 8.60652ZM19.6903 16.6539C20.4103 17.132 21.1303 17.61 21.8502 18.0881C22.1702 18.2873 22.3702 18.4865 22.6502 18.6857C23.1701 19.0442 23.2101 19.0442 22.8901 19.7215C22.7301 20.08 22.4502 20.5581 22.2502 20.837C21.9302 20.837 21.8502 20.7971 21.4902 20.5979C21.2102 20.4784 20.9303 20.3191 20.7703 20.1996C20.0503 19.7613 19.3304 19.3231 18.5704 18.9247C17.7704 18.4865 16.9705 18.1678 16.1705 17.7296C15.1706 17.2117 14.2107 16.6938 13.2507 16.136C12.8107 15.897 12.4108 15.658 12.0108 15.4189C11.8108 15.2994 11.7308 15.2596 11.8108 15.0604C12.0108 14.4628 12.1308 14.0246 12.2908 13.427C12.3708 13.1083 12.6507 12.5904 12.7707 12.3115C13.1707 12.4709 13.3307 12.5904 13.6507 12.7497C14.2107 13.0684 14.8106 13.3872 15.3706 13.7059C16.8105 14.7417 18.2504 15.6978 19.6903 16.6539ZM4.33122 4.58282C4.33122 4.50314 4.37124 4.46331 4.45124 4.42347C4.9712 4.30395 7.29106 3.66653 7.97102 3.58685C8.21101 3.54702 10.1709 3.2283 10.4109 3.34782C10.9308 3.58685 11.2908 3.9454 11.6908 4.30394C12.1308 4.74217 12.6907 5.06088 13.1307 5.4991C13.4507 5.81781 13.7707 6.05685 14.1306 6.33572C14.3706 6.53491 14.9706 7.01298 15.2506 7.25201C15.3706 7.37153 15.1306 7.65039 15.0506 7.76991C14.6906 8.32765 14.2906 8.84556 13.8107 9.44314C13.6107 9.68217 13.4507 9.52281 13.2507 9.4033C13.1307 9.36346 13.0107 9.28378 12.8507 9.2041C12.5308 9.04475 12.2108 8.84556 11.8908 8.64636C11.1708 8.20814 10.4109 7.80975 9.7309 7.33168C9.25093 7.01297 4.89119 5.49911 4.41122 5.26008C4.29123 5.22024 4.33122 4.78201 4.33122 4.58282ZM6.45112 11.6741C6.05114 11.3554 5.17119 9.56264 4.9712 8.72603C5.93114 8.92523 8.331 10.2001 8.77098 10.3993C9.29095 10.6781 10.3309 11.0367 10.8908 11.3155C11.0108 11.3952 11.0908 11.5147 11.0508 11.6343C10.8509 12.2318 10.2509 13.7855 10.0109 14.5026C9.37093 14.0644 6.85109 11.9928 6.45112 11.6741ZM13.2507 24.1037C12.6907 24.0241 12.7307 23.9842 12.3708 23.546C11.9308 23.0281 9.93089 18.9247 9.93089 18.9247C9.93089 18.9247 13.7307 20.5979 13.9707 20.7175C14.2507 20.837 16.5305 21.9525 17.0505 22.1517C17.6505 22.3508 18.2104 22.55 18.8104 22.7492C19.0104 22.8289 19.0904 22.9086 19.0904 23.1476C19.0904 23.8249 19.0904 24.3826 19.0904 25.0599C18.9704 25.0599 18.9304 25.0599 18.8504 25.0599C17.9304 25.0599 14.0507 24.1834 13.2507 24.1037ZM15.3306 28.725C15.1306 28.725 14.9306 28.725 14.7306 28.4462C14.5706 28.2071 14.2907 27.7689 14.0507 27.3307C14.2907 27.2908 16.2905 27.3705 16.4505 27.3705C16.6505 27.3705 17.1705 27.4502 17.2105 27.6494C17.3305 28.0079 17.4905 28.247 17.4105 28.6055C17.1305 28.6453 16.7305 28.6852 16.4905 28.6852C16.1305 28.725 15.6906 28.725 15.3306 28.725ZM16.5705 31.7129C16.2905 31.5137 16.1305 31.1153 15.8906 30.7568C15.8506 30.717 15.8506 30.6771 15.8506 30.5974C16.2105 30.5576 19.4103 30.3982 19.7703 30.3982C20.4503 30.3982 21.0102 30.3982 21.6902 30.3982C21.8902 30.3982 21.8502 30.4779 21.8502 30.6373C21.8502 30.8365 21.8502 30.9958 21.8502 31.195C21.8502 31.3544 21.8502 31.4739 21.8102 31.5934C21.8102 31.6332 21.6502 31.6332 21.6102 31.6332C21.2502 31.7129 20.9302 31.6731 20.4103 31.7528C20.1703 31.7926 17.3305 31.7926 17.0905 31.7926C16.9705 31.8324 16.7305 31.8324 16.5705 31.7129ZM21.8902 37.609L20.3303 37.2505C20.2903 37.2505 20.2503 37.2106 20.2503 37.1708L18.8504 34.5415C18.8104 34.4618 18.8504 34.3821 18.9704 34.3423L20.2503 34.2626C20.2903 34.2626 20.3303 34.3024 20.3703 34.3423L22.0102 37.4098C22.0902 37.5294 22.0102 37.6489 21.8902 37.609ZM33.7295 33.5853C33.9695 33.5853 34.0495 33.7845 34.1695 33.9439C34.4095 34.2626 34.6094 34.5813 34.8094 34.9399C35.0094 35.2586 35.2494 35.6171 35.4494 35.9358C35.4894 36.0553 35.5294 36.2147 35.4894 36.2944C35.3694 36.8123 35.2494 37.2903 35.0894 37.8082C34.9294 38.2863 34.7694 38.8042 34.6495 39.2823C34.5295 39.7205 34.4095 40.1587 34.2895 40.5571C34.2095 40.8758 34.1295 41.1148 34.0095 41.3937C33.9695 41.5132 33.8895 41.5531 33.7695 41.5132C33.4095 41.3937 33.0895 41.314 32.7295 41.1945C32.3696 41.075 31.2097 40.7563 30.8497 40.5969C30.3697 40.4376 29.8897 40.2782 29.4498 40.1189C29.0098 39.9595 28.6098 39.8002 28.1698 39.601C27.7299 39.4018 27.2899 39.2424 26.8499 39.0432C25.93 38.605 26.25 38.7245 25.25 38.3261C24.97 38.2066 24.5301 38.0074 24.2501 37.8481C24.0901 37.7684 23.6501 37.0115 23.5701 36.8521C23.0501 35.8561 22.6902 34.9797 22.1702 33.9837C26.4099 33.7447 29.4897 33.5455 33.7295 33.5853ZM26.2899 44.8198C26.2899 44.8597 26.25 44.8995 26.25 44.8995C26.13 44.9792 25.81 44.9393 25.65 44.8995C25.33 44.8597 24.85 44.8597 24.57 44.7003C24.53 44.7003 24.53 44.6605 24.49 44.6605C24.2501 44.5011 24.0901 44.1027 23.9301 43.8637C23.8501 43.7442 23.8101 43.6645 23.7301 43.545C23.6901 43.4653 23.6101 43.3458 23.5701 43.2263C23.5301 43.1864 23.5301 43.1068 23.5301 43.0669C23.5301 42.9873 23.6501 42.9872 23.7301 42.9872C23.8501 42.9872 23.9301 42.9872 24.0501 42.9474C24.0901 42.9474 24.1701 42.9474 24.2101 42.9474C24.37 42.9474 24.57 42.9076 24.73 42.9076C24.89 42.9076 25.05 42.9474 25.21 42.9474C25.33 42.9474 25.49 42.9474 25.57 43.0669C25.73 43.2661 25.93 43.6645 26.05 43.9832C26.13 44.2222 26.21 44.4613 26.25 44.7003C26.2899 44.7402 26.2899 44.78 26.2899 44.8198ZM27.0899 42.31C26.8499 42.2702 26.5299 42.2303 26.3299 42.1108L26.2899 42.071C26.09 41.9514 25.97 41.7124 25.85 41.5531C25.81 41.4734 25.73 41.4335 25.69 41.3539C25.65 41.2742 25.61 41.2343 25.57 41.1547C25.57 41.1148 25.53 41.075 25.53 41.0352C25.53 40.9953 25.61 40.9953 25.65 40.9953C25.73 40.9953 25.81 40.9953 25.85 40.9953C25.89 40.9953 25.93 40.9953 25.97 40.9953C26.09 40.9953 26.2099 40.9953 26.3299 40.9953C26.4499 40.9953 26.5699 41.0352 26.6499 41.0352C26.7299 41.0352 26.8499 41.075 26.9299 41.1547C27.0499 41.2742 27.2099 41.5531 27.3299 41.7522C27.4099 41.9116 27.4499 42.071 27.5299 42.1905C27.5299 42.1905 27.5299 42.2303 27.5299 42.2702C27.5299 42.2702 27.5299 42.31 27.4899 42.31C27.4099 42.3897 27.1699 42.31 27.0899 42.31ZM30.4097 49.3614C30.0097 50.6761 29.3298 52.6282 29.1698 52.7875C29.0898 52.8672 28.8498 52.4688 28.5298 51.9111C28.3698 51.6721 28.2898 50.7558 28.0898 50.4769C27.8099 50.0387 27.4899 49.6005 27.4899 49.5606C27.4899 49.5208 28.2498 47.7679 28.3298 47.489C28.4098 47.2101 28.7298 47.4093 28.7298 47.4093C28.7298 47.4093 30.6897 48.4451 30.6097 48.8435C30.4497 49.2419 30.5697 48.9232 30.4097 49.3614ZM30.8897 46.7321L29.4498 45.6564C29.3698 45.5768 29.3298 45.4971 29.3698 45.3776C29.5698 44.7003 29.7697 44.2621 30.0497 43.545C30.1697 43.2263 30.3297 42.8677 30.4497 42.5889C30.4897 42.4693 30.7297 42.6287 30.8097 42.6685C31.0497 42.7881 31.2097 42.8279 31.4496 42.9474C31.7696 43.1068 31.8096 43.1068 32.1296 43.2661C32.2496 43.3458 32.2896 43.3856 32.2496 43.5052C32.2096 43.7043 32.0896 44.0231 32.0496 44.1824C31.9696 44.541 31.3696 46.254 31.2497 46.5727C31.1697 46.7321 31.0097 46.8118 30.8897 46.7321ZM34.9294 53.9429C34.5694 55.9348 34.2895 57.5682 33.8095 59.6C33.7695 59.7195 33.6095 59.7593 33.5295 59.6796C32.9695 59.0024 31.5696 56.373 31.3696 55.9348C31.2897 55.7356 31.4496 55.4169 31.6496 54.8592C31.8096 54.3413 32.0096 53.7437 32.1696 53.1859C32.4496 52.19 32.5696 51.7517 32.7696 51.1143C32.8496 50.7956 33.2095 49.6403 33.2895 49.3614C33.3695 49.1224 33.4895 49.1224 34.1295 49.5208C34.6094 49.8395 35.0894 50.1184 35.4094 50.3176C35.4894 50.3972 35.5694 50.5167 35.5694 50.5964C35.3694 51.9908 35.2094 52.4688 34.9294 53.9429ZM36.0094 47.8874C35.8894 48.3256 35.9294 48.2459 35.6494 48.1663C35.2894 48.0069 35.0494 47.8874 34.6894 47.6484C34.4895 47.5289 34.3295 47.4093 34.1695 47.25C34.1295 47.2101 34.0895 47.0906 34.1295 46.9711C34.6494 45.1784 34.7295 44.78 35.2494 42.9872C35.2894 42.8279 35.3694 42.5092 35.5294 42.5092C35.6094 42.5092 36.0494 42.6287 36.0894 42.6287C36.4893 42.7084 36.4893 42.7084 36.8893 42.8279C36.9693 42.8279 36.9693 42.9474 36.9693 43.0271C36.7293 44.2621 36.9293 43.5052 36.6493 44.6605C36.5693 45.2581 36.1694 47.3297 36.0094 47.8874ZM42.609 61.552C42.529 61.9903 42.009 62.309 41.769 62.5082C41.2491 62.9464 40.6091 63.7033 39.9691 63.783C39.9291 63.783 39.8491 63.783 39.8091 63.783C39.2892 63.783 38.6492 63.1058 38.1692 62.787C37.9693 62.6675 37.7693 62.5082 37.5693 62.3488C37.3693 62.1895 37.2093 62.0301 37.0493 61.8708C36.9693 61.7911 36.8893 61.6716 36.8493 61.5122C36.7693 61.2732 36.9293 61.1138 37.0493 60.9545C37.2093 60.7553 37.3293 60.5561 37.4893 60.3967C37.5693 60.3171 37.6093 60.1975 37.6893 60.1179C37.9293 59.7991 38.1692 59.4804 38.4092 59.2016C38.6492 58.9625 38.8892 58.7633 39.1692 58.5243C39.3292 58.365 39.5692 58.1259 39.8492 58.2454C40.3291 58.4446 41.0091 59.1219 41.489 59.6796C41.849 60.078 42.209 60.5561 42.489 61.074C42.529 61.1138 42.569 61.2333 42.569 61.313C42.649 61.3529 42.649 61.4724 42.609 61.552ZM43.1289 47.7679C42.769 46.2142 42.769 46.4134 42.489 44.78C42.449 44.541 42.249 43.7442 42.209 43.3856C42.809 43.1068 43.4889 42.7881 43.8489 42.7482C43.9689 42.7482 44.0489 42.8279 44.0889 42.9872C44.4089 43.9434 44.1689 43.1864 44.4889 44.1426C44.6889 44.8198 45.3688 46.4532 45.6088 47.1703C44.9688 47.5687 44.2489 47.9272 43.5689 48.2061C43.3689 48.2858 43.2489 48.2858 43.1289 47.7679ZM48.9686 55.0982C48.4886 55.9348 46.8487 58.4845 46.0888 59.4804C45.9688 59.6398 45.5688 59.7992 45.4888 59.6C45.2888 58.843 45.2488 58.5641 44.9288 57.0901C44.8888 56.8112 44.6489 55.8153 44.5689 55.2177C44.3689 54.0624 44.1689 53.1859 44.0089 51.9908C43.9289 51.2737 43.6489 50.3176 43.6089 49.9988C43.6089 49.9192 43.6489 49.8793 43.6889 49.8395L46.0088 48.6443C46.0088 48.6443 46.4887 49.9192 47.0087 51.0745C47.2487 51.6322 47.7687 51.8314 47.9287 52.19C48.1286 52.7477 48.6886 53.9827 48.9686 54.7396C49.0486 54.8592 49.0086 55.0185 48.9686 55.0982ZM52.0884 49.4013C51.7284 49.9192 51.2085 50.4769 50.6885 50.9151C50.4885 50.6761 50.2485 50.3175 50.1285 50.1184C49.9285 49.6801 49.6886 49.3216 49.5286 48.724C49.4886 48.6045 49.4486 48.485 49.4886 48.4451C49.8885 48.1264 50.2085 47.8476 50.4885 47.6484C50.7285 47.489 50.9285 47.3695 51.0885 47.2898C51.2885 47.2102 51.2885 47.2898 51.3685 47.4093C51.6085 47.8077 51.5684 47.6882 51.8084 48.1264C52.0084 48.2061 52.1684 49.2818 52.0884 49.4013ZM52.0484 42.31C51.9684 42.31 51.8884 42.31 51.8084 42.3498C51.7284 42.3498 51.6484 42.3498 51.5685 42.3498C51.5285 42.3498 51.4885 42.3498 51.4485 42.31C51.4085 42.2702 51.4485 42.2303 51.4885 42.1905C51.5285 42.1506 51.5684 42.071 51.6084 42.0311C51.6084 41.9913 51.6485 41.9913 51.6485 41.9514C51.7284 41.8319 51.7684 41.7523 51.8484 41.6726C51.9284 41.5929 52.0084 41.5132 52.0884 41.4335C52.1284 41.3937 52.2084 41.2742 52.3284 41.2742C52.5284 41.2344 52.8484 41.2344 53.0484 41.2344C53.2084 41.2344 53.3683 41.2742 53.5283 41.314C53.5283 41.314 53.5683 41.314 53.5683 41.3539L53.6083 41.3937C53.6083 41.4734 53.4483 41.6327 53.3683 41.7124C53.2084 41.8718 53.0084 42.1506 52.7684 42.2702C52.7284 42.2702 52.7284 42.2702 52.6884 42.31C52.5684 42.31 52.2884 42.2702 52.0484 42.31ZM55.1682 43.8637C55.0082 44.1426 54.8882 44.541 54.6083 44.7401C54.5683 44.7401 54.5683 44.78 54.5283 44.78C54.2883 44.9393 53.8883 44.8995 53.6483 44.8995C53.5283 44.8995 53.4083 44.8995 53.3283 44.9393C53.2083 44.9393 53.1284 44.9393 53.0084 44.9393C52.9684 44.9393 52.8884 44.9393 52.8484 44.8995C52.7684 44.8597 52.8084 44.7402 52.8484 44.7003C52.8884 44.6206 52.8884 44.5011 52.9284 44.4214C52.9284 44.3816 52.9684 44.3418 52.9684 44.2621C53.0084 44.1027 53.0484 43.9434 53.1283 43.784C53.1683 43.6645 53.2483 43.5051 53.3283 43.3856C53.3683 43.306 53.4483 43.1466 53.5683 43.1068C53.8083 43.0271 54.2483 43.0669 54.5683 43.1068C54.8083 43.1466 55.0482 43.1864 55.2882 43.2661C55.3282 43.2661 55.3682 43.306 55.3682 43.306C55.3682 43.306 55.4082 43.3458 55.4082 43.3856C55.3682 43.5051 55.2482 43.7442 55.1682 43.8637ZM58.2481 37.8082C58.2081 37.8481 58.1681 37.8879 58.0881 37.9277L56.0882 38.366L58.488 34.5415C58.568 34.422 58.648 34.3821 58.768 34.3821L60.4079 34.3423L58.2481 37.8082ZM62.8078 30.3584C62.6878 30.7966 62.4078 32.1113 62.0478 32.0316C61.4879 31.9918 57.8881 31.9121 57.3681 31.8723C57.2881 31.8723 57.2081 31.8723 57.1281 31.8723C56.8081 31.8723 56.4482 31.8723 56.1282 31.8324C56.0882 31.8324 56.0082 31.7528 56.0082 31.7129C55.9682 31.4341 55.9282 31.1153 55.9282 30.7966C55.9282 30.7568 56.0082 30.717 56.0482 30.6771C56.3282 30.6373 62.6478 30.1194 62.6478 30.1194C62.9278 30.1194 62.8878 30.1194 62.8078 30.3584ZM64.7677 26.4144C64.6477 26.7729 64.1277 27.5697 63.8077 27.8884C63.7277 27.9681 63.6477 28.0478 63.2878 28.0876C62.2078 28.1673 60.1679 28.247 59.608 28.2868C59.408 28.2868 59.288 28.247 59.288 28.1673C59.288 28.0079 59.168 27.3307 59.168 27.2112C59.168 27.0916 59.648 27.0916 59.848 27.0518C60.3679 27.012 61.4079 26.7729 61.9278 26.6933C62.3678 26.6136 64.2477 26.1754 64.8477 26.1355C64.8077 26.2152 64.8077 26.3347 64.7677 26.4144ZM66.6876 24.0639C66.6876 24.0639 65.6076 24.3029 64.9277 24.3428C64.5677 24.3826 64.5677 24.2233 64.5277 23.8249C64.4877 23.5858 64.4877 23.3468 64.4877 22.9883C64.4877 22.8688 67.2075 22.4305 67.4075 22.3907C67.2875 22.8688 66.6876 24.0639 66.6876 24.0639ZM73.1672 11.5147L69.8874 17.2117C69.8474 17.2515 69.8074 17.3312 69.7674 17.371C69.2074 17.8092 67.2075 18.5662 66.2876 18.8849C66.2476 18.9247 66.1676 18.8849 66.1276 18.8849C65.8876 18.0084 65.4876 16.4149 65.3276 15.897C65.2876 15.7775 65.3276 15.6978 65.4476 15.6181L67.2875 14.6222L71.4473 11.9131L73.0472 11.3155C73.1272 11.2757 73.2072 11.3952 73.1672 11.5147ZM75.567 5.65847C75.447 6.01701 74.7671 7.53088 74.4471 7.61056C73.2872 7.92927 70.6473 8.56668 69.8074 8.80572C69.5274 8.88539 69.3674 8.92522 69.2074 8.68619C68.8474 8.16829 67.9675 6.77394 67.8075 6.49507C67.7675 6.41539 67.7675 6.29588 67.8475 6.21621C68.2475 5.77798 70.0874 4.26411 70.4073 4.02508C70.6873 3.82589 75.567 5.37959 75.567 5.37959C75.567 5.45927 75.607 5.57879 75.567 5.65847Z" fill="#BA8600"/>
</g>
</svg>
